<svg width="100" height="100" viewBox="0 0 100 100" fill="none" xmlns="http://www.w3.org/2000/svg">
<path fill-rule="evenodd" clip-rule="evenodd" d="M35.7168 45.1109L41.4993 39.3284L47.2817 45.1109L41.4993 50.8934L35.7168 45.1109ZM34.3026 46.5251C33.5215 45.7441 33.5215 44.4777 34.3026 43.6967L40.0851 37.9142C40.8661 37.1332 42.1324 37.1332 42.9135 37.9142L48.696 43.6967C49.477 44.4777 49.477 45.7441 48.696 46.5251L42.9135 52.3076C42.1324 53.0886 40.8661 53.0886 40.0851 52.3076L34.3026 46.5251ZM53.8281 45.1109L59.6106 39.3284L65.3931 45.1109L59.6106 50.8934L53.8281 45.1109ZM52.4139 46.5251C51.6329 45.7441 51.6329 44.4777 52.4139 43.6967L58.1964 37.9142C58.9774 37.1332 60.2438 37.1332 61.0248 37.9142L66.8073 43.6967C67.5883 44.4777 67.5883 45.7441 66.8073 46.5251L61.0248 52.3076C60.2438 53.0886 58.9774 53.0886 58.1964 52.3076L52.4139 46.5251Z" fill="#E3BF77"/>
<path d="M28 50C28 48.8954 28.8954 48 30 48H71C72.1046 48 73 48.8954 73 50V57C73 57.5523 72.5523 58 72 58H29C28.4477 58 28 57.5523 28 57V50Z" fill="white"/>
<path fill-rule="evenodd" clip-rule="evenodd" d="M69 36H32V48H69V36ZM30 36V48C28.8954 48 28 48.8954 28 50V57C28 57.5523 28.4477 58 29 58H30V62C30 62.5523 30.4477 63 31 63H32V65C32 65.5523 32.4477 66 33 66C33.5523 66 34 65.5523 34 65V63H67V65C67 65.5523 67.4477 66 68 66C68.5523 66 69 65.5523 69 65V63H70C70.5523 63 71 62.5523 71 62V58H72C72.5523 58 73 57.5523 73 57V50C73 48.8954 72.1046 48 71 48V36C71 34.8954 70.1046 34 69 34H32C30.8954 34 30 34.8954 30 36ZM69 58H32V61H69V58ZM70 56H71V50H69H32H30V56H31H70Z" fill="#E3BF77"/>
</svg>
