<svg width="40" height="40" viewBox="0 0 40 40" fill="none" xmlns="http://www.w3.org/2000/svg">
<path d="M16.9453 14.2924C16.9453 14.7208 16.9453 16.6329 16.9453 16.6329H15V19.495H16.9453V28H20.9414V19.4952H23.6229C23.6229 19.4952 23.874 18.1229 23.9958 16.6224C23.6468 16.6224 20.9565 16.6224 20.9565 16.6224C20.9565 16.6224 20.9565 14.9573 20.9565 14.6655C20.9565 14.373 21.3922 13.9796 21.8228 13.9796C22.2526 13.9796 23.1598 13.9796 24 13.9796C24 13.5899 24 12.2435 24 11C22.8783 11 21.6022 11 21.0397 11C16.8465 10.9998 16.9453 13.8647 16.9453 14.2924Z" fill="#ABABAB"/>
</svg>
