<svg width="40" height="40" viewBox="0 0 40 40" fill="none" xmlns="http://www.w3.org/2000/svg">
<path opacity="0.4" d="M30.8833 24.8373C30.8567 24.7824 30.8319 24.7369 30.8088 24.7004C30.4271 24.0432 29.6977 23.2365 28.621 22.2801L28.5982 22.2582L28.5868 22.2475L28.5753 22.2365H28.5638C28.0751 21.7911 27.7657 21.4917 27.6361 21.3384C27.399 21.0463 27.3459 20.7507 27.4754 20.4512C27.567 20.2249 27.9109 19.747 28.5064 19.0168C28.8196 18.6299 29.0676 18.3197 29.2508 18.0861C30.572 16.4069 31.1448 15.3338 30.9691 14.8666L30.9008 14.7574C30.855 14.6916 30.7366 14.6315 30.5459 14.5766C30.3548 14.5219 30.1105 14.5128 29.8126 14.5493L26.5138 14.5711C26.4604 14.553 26.3841 14.5547 26.2846 14.5766C26.1853 14.5986 26.1357 14.6096 26.1357 14.6096L26.0783 14.637L26.0327 14.6699C25.9945 14.6917 25.9525 14.73 25.9066 14.7848C25.861 14.8394 25.8229 14.9034 25.7924 14.9764C25.4332 15.8598 25.0249 16.6811 24.5666 17.4403C24.284 17.893 24.0245 18.2854 23.7876 18.6176C23.5509 18.9496 23.3523 19.1943 23.1921 19.3511C23.0316 19.5081 22.8868 19.6339 22.7567 19.7289C22.6269 19.824 22.5277 19.8641 22.4591 19.8494C22.3903 19.8347 22.3255 19.8202 22.2641 19.8056C22.1573 19.7398 22.0714 19.6504 22.0066 19.5373C21.9415 19.4241 21.8977 19.2817 21.8748 19.1102C21.852 18.9385 21.8385 18.7908 21.8346 18.6667C21.8311 18.5427 21.8327 18.3673 21.8405 18.141C21.8484 17.9145 21.852 17.7614 21.852 17.681C21.852 17.4036 21.8576 17.1024 21.869 16.7776C21.8805 16.4527 21.8899 16.1953 21.8977 16.0057C21.9055 15.8158 21.9091 15.615 21.9091 15.4033C21.9091 15.1916 21.8956 15.0255 21.869 14.905C21.8427 14.7847 21.8023 14.6678 21.749 14.5546C21.6955 14.4414 21.6171 14.3539 21.5142 14.2918C21.4111 14.2297 21.283 14.1804 21.1305 14.1439C20.7257 14.0563 20.2103 14.0089 19.584 14.0016C18.1637 13.987 17.2511 14.0747 16.8464 14.2645C16.686 14.3447 16.5409 14.4543 16.4112 14.5929C16.2737 14.7536 16.2545 14.8412 16.3538 14.8557C16.812 14.9213 17.1364 15.0783 17.3274 15.3265L17.3962 15.458C17.4497 15.5529 17.5031 15.7209 17.5566 15.9618C17.61 16.2026 17.6445 16.4691 17.6596 16.761C17.6977 17.294 17.6977 17.7503 17.6596 18.1298C17.6214 18.5096 17.5853 18.8052 17.5508 19.0169C17.5164 19.2286 17.4649 19.4002 17.3962 19.5315C17.3274 19.6629 17.2816 19.7433 17.2586 19.7724C17.2357 19.8016 17.2166 19.8199 17.2015 19.8271C17.1022 19.8635 16.999 19.882 16.8921 19.882C16.7851 19.882 16.6554 19.8309 16.5027 19.7286C16.35 19.6263 16.1916 19.4859 16.0274 19.307C15.8632 19.1281 15.678 18.878 15.4717 18.5568C15.2657 18.2357 15.0518 17.8561 14.8304 17.418L14.6471 17.1004C14.5326 16.896 14.3761 16.5985 14.1776 16.208C13.9789 15.8173 13.8033 15.4394 13.6506 15.0744C13.5896 14.9211 13.4979 14.8044 13.3758 14.7241L13.3184 14.6911C13.2803 14.662 13.2191 14.631 13.1352 14.598C13.0512 14.5651 12.9635 14.5414 12.8718 14.5269L9.73323 14.5487C9.41251 14.5487 9.1949 14.6182 9.08032 14.7569L9.03446 14.8225C9.01155 14.8591 9 14.9174 9 14.9978C9 15.0781 9.02291 15.1767 9.06877 15.2934C9.52693 16.3229 10.0252 17.3157 10.5635 18.2721C11.1018 19.2284 11.5696 19.9988 11.9666 20.5825C12.3637 21.1666 12.7684 21.7179 13.1808 22.2361C13.5932 22.7544 13.8662 23.0866 13.9997 23.2326C14.1334 23.3788 14.2385 23.4881 14.3148 23.5611L14.6012 23.8239C14.7845 23.9991 15.0536 24.209 15.4087 24.4535C15.7639 24.6982 16.1571 24.939 16.5886 25.1765C17.0201 25.4136 17.5221 25.607 18.0949 25.7567C18.6676 25.9064 19.225 25.9665 19.7672 25.9375H21.0845C21.3517 25.9155 21.5541 25.8352 21.6917 25.6966L21.7372 25.6417C21.7679 25.5981 21.7966 25.5304 21.8231 25.4393C21.8499 25.3481 21.8632 25.2475 21.8632 25.1382C21.8554 24.8243 21.8803 24.5414 21.9375 24.2896C21.9946 24.0378 22.0596 23.848 22.1324 23.7202C22.2052 23.5925 22.2872 23.4847 22.3786 23.3973C22.4701 23.3097 22.5354 23.2567 22.5737 23.2384C22.6117 23.2201 22.6421 23.2076 22.665 23.2001C22.8482 23.1417 23.0639 23.1983 23.3123 23.37C23.5606 23.5416 23.7934 23.7534 24.0111 24.0052C24.2288 24.2572 24.4903 24.5399 24.7957 24.8537C25.1013 25.1677 25.3685 25.4011 25.5975 25.5546L25.8265 25.686C25.9794 25.7737 26.178 25.854 26.4224 25.927C26.6663 26 26.8801 26.0182 27.0636 25.9818L29.9959 25.938C30.2859 25.938 30.5116 25.8921 30.6717 25.801C30.8321 25.7098 30.9273 25.6093 30.9581 25.4999C30.9887 25.3904 30.9904 25.2662 30.9639 25.1274C30.9367 24.9889 30.91 24.8921 30.8833 24.8373Z" fill="#2D2D2D"/>
</svg>
