<svg width="100" height="100" viewBox="0 0 100 100" fill="none" xmlns="http://www.w3.org/2000/svg">
<path fill-rule="evenodd" clip-rule="evenodd" d="M35.7168 45.1109L41.4993 39.3284L47.2817 45.1109L43.2593 49.2078L42.7099 49C42.5373 49.1727 42.3608 49.3186 42.1823 49.4328L41.4997 49L40.6635 49.5301C40.5373 49.4557 40.4123 49.3579 40.2893 49.2349L39.8501 49.3201L35.7168 45.1109ZM39.8501 49.3201L37.5448 49.7674L34.3026 46.5251C33.5215 45.7441 33.5215 44.4777 34.3026 43.6967L40.0851 37.9142C40.8661 37.1332 42.1324 37.1332 42.9135 37.9142L48.696 43.6967C49.477 44.4777 49.477 45.7441 48.696 46.5251L45.2575 49.9635L43.2593 49.2078L42.7099 49.7674L42.1823 49.4328C41.6803 49.7539 41.1617 49.8239 40.6635 49.5301L40.2893 49.7674L39.8501 49.3201ZM53.7157 45.1438L59.4982 39.3613L65.2806 45.1438L61.2582 49.2407L60.7088 49.0329C60.5362 49.2055 60.3597 49.3515 60.1812 49.4657L59.4986 49.0329L58.6624 49.563C58.5361 49.4886 58.4112 49.3908 58.2882 49.2678L57.849 49.353L53.7157 45.1438ZM57.849 49.353L55.5437 49.8003L52.3015 46.558C51.5204 45.777 51.5204 44.5106 52.3015 43.7296L58.0839 37.9471C58.865 37.1661 60.1313 37.1661 60.9124 37.9471L66.6949 43.7296C67.4759 44.5106 67.4759 45.777 66.6949 46.558L63.2564 49.9964L61.2582 49.2407L60.7088 49.8003L60.1812 49.4657C59.6792 49.7868 59.1606 49.8568 58.6624 49.563L58.2882 49.8003L57.849 49.353Z" fill="#E3BF77"/>
<path fill-rule="evenodd" clip-rule="evenodd" d="M69 36H32V48H69V36ZM30 36V48C28.8954 48 28 48.8954 28 50V57C28 57.5523 28.4477 58 29 58H30V62C30 62.5523 30.4477 63 31 63H32V65C32 65.5523 32.4477 66 33 66C33.5523 66 34 65.5523 34 65V63H67V65C67 65.5523 67.4477 66 68 66C68.5523 66 69 65.5523 69 65V63H70C70.5523 63 71 62.5523 71 62V58H72C72.5523 58 73 57.5523 73 57V50C73 48.8954 72.1046 48 71 48V36C71 34.8954 70.1046 34 69 34H32C30.8954 34 30 34.8954 30 36ZM69 58H32V61H69V58ZM70 56H71V50H69H32H30V56H31H70Z" fill="#E3BF77"/>
</svg>
