<svg width="100" height="100" viewBox="0 0 100 100" fill="none" xmlns="http://www.w3.org/2000/svg">
<path d="M38.1085 65.6246L40.2363 67.7557C40.6348 68.1568 41.2804 68.1646 41.6824 67.7605C42.0844 67.3567 42.0882 66.7047 41.6898 66.304L39.5593 64.1736C38.7975 63.4117 38.9178 62.0038 39.8223 61.0994L41.5998 59.3218L42.0713 59.7934C42.2706 59.9927 42.5334 60.0939 42.7969 60.0939C43.0262 60.0939 43.2561 60.0175 43.4457 59.8627L56.1611 49.4784C56.3364 49.4919 56.5126 49.5008 56.6902 49.5008C58.4853 49.5008 60.173 48.8019 61.4422 47.5325C62.7115 46.2632 63.4107 44.5757 63.4107 42.7805C63.4107 40.9854 62.7116 39.2977 61.4422 38.0284C60.1731 36.7591 58.4854 36.06 56.6903 36.06C54.8953 36.06 53.2076 36.7591 51.9383 38.0283C50.669 39.2976 49.97 40.9853 49.97 42.7803C49.97 42.9579 49.9788 43.1343 49.9924 43.3096L39.6081 56.0248C39.2749 56.4327 39.305 57.0268 39.6773 57.3992L40.1489 57.8708L38.3715 59.6482C36.6512 61.3683 36.5331 64.0492 38.1085 65.6246ZM55.4121 44.0585C53.4301 42.0765 52.8819 39.9929 53.3876 39.4811C53.3881 39.4805 53.3887 39.48 53.3893 39.4794C54.2711 38.5976 55.4434 38.112 56.6903 38.112C57.9372 38.112 59.1097 38.5977 59.9914 39.4794C60.8732 40.3612 61.3588 41.5335 61.3588 42.7803C61.3588 44.0274 60.8731 45.1997 59.9914 46.0815C59.4826 46.5903 57.3967 46.0429 55.4121 44.0585ZM52.0267 42.9748C52.4931 43.8262 53.1426 44.6912 53.961 45.5095C54.7801 46.3286 55.6454 46.9773 56.4972 47.444C55.5571 47.2811 54.2585 46.9508 53.3892 46.0815C52.5515 45.2436 52.1897 43.9146 52.0267 42.9748ZM41.7844 56.6042L50.6555 45.7415C50.9774 46.3963 51.4073 47.0013 51.9382 47.5325C52.4694 48.0637 53.0745 48.4933 53.7293 48.8153L42.8665 57.6863L41.7844 56.6042Z" fill="#E3BF77"/>
</svg>
