<svg width="100" height="100" viewBox="0 0 100 100" fill="none" xmlns="http://www.w3.org/2000/svg">
<path fill-rule="evenodd" clip-rule="evenodd" d="M30 30C29.4477 30 29 30.4477 29 31V33.2676C28.4022 33.6134 28 34.2597 28 35C28 35.7403 28.4022 36.3866 29 36.7324V40.2676C28.4022 40.6134 28 41.2597 28 42C28 42.7403 28.4022 43.3866 29 43.7324V47.2676C28.4022 47.6134 28 48.2597 28 49C28 49.7403 28.4022 50.3866 29 50.7324V54.2676C28.4022 54.6134 28 55.2597 28 56C28 56.7403 28.4022 57.3866 29 57.7324V61C29 61.5523 29.4477 62 30 62C30.5523 62 31 61.5523 31 61V57.7324C31.1338 57.6551 31.2577 57.5626 31.3696 57.4575C35.2249 58.528 42.3874 60 50 60C57.6126 60 64.7751 58.528 68.6304 57.4575C68.7423 57.5626 68.8662 57.6551 69 57.7324V61C69 61.5523 69.4477 62 70 62C70.5523 62 71 61.5523 71 61V57.7324C71.5978 57.3866 72 56.7403 72 56C72 55.2597 71.5978 54.6134 71 54.2676V50.7324C71.5978 50.3866 72 49.7403 72 49C72 48.2597 71.5978 47.6134 71 47.2676V43.7324C71.5978 43.3866 72 42.7403 72 42C72 41.2597 71.5978 40.6134 71 40.2676V36.7324C71.5978 36.3866 72 35.7403 72 35C72 34.2597 71.5978 33.6134 71 33.2676V31C71 30.4477 70.5523 30 70 30C69.4477 30 69 30.4477 69 31V33.2676C68.5294 33.5398 68.18 33.9983 68.0526 34.5423C64.3448 35.5682 57.3829 37 50 37C42.6171 37 35.6552 35.5682 31.9474 34.5423C31.82 33.9983 31.4706 33.5398 31 33.2676V31C31 30.4477 30.5523 30 30 30ZM31.9474 55.5423C35.6552 56.5682 42.6171 58 50 58C57.3829 58 64.3448 56.5682 68.0526 55.5423C68.18 54.9983 68.5294 54.5398 69 54.2676V50.7324C68.8662 50.6551 68.7423 50.5626 68.6304 50.4575C64.7751 51.528 57.6126 53 50 53C42.3874 53 35.2249 51.528 31.3696 50.4575C31.2577 50.5626 31.1338 50.6551 31 50.7324V54.2676C31.4706 54.5398 31.82 54.9983 31.9474 55.5423ZM31 47.2676C31.4706 47.5398 31.82 47.9983 31.9474 48.5423C35.6552 49.5682 42.6171 51 50 51C57.3829 51 64.3448 49.5682 68.0526 48.5423C68.18 47.9983 68.5294 47.5398 69 47.2676V43.7324C68.8662 43.6551 68.7423 43.5626 68.6304 43.4575C64.7751 44.528 57.6126 46 50 46C42.3874 46 35.2249 44.528 31.3696 43.4575C31.2577 43.5626 31.1338 43.6551 31 43.7324V47.2676ZM31.9474 41.5423C35.6552 42.5682 42.6171 44 50 44C57.3829 44 64.3448 42.5682 68.0526 41.5423C68.18 40.9983 68.5294 40.5398 69 40.2676V36.7324C68.8662 36.6551 68.7423 36.5626 68.6304 36.4575C64.7751 37.528 57.6126 39 50 39C42.3874 39 35.2249 37.528 31.3696 36.4575C31.2577 36.5626 31.1338 36.6551 31 36.7324V40.2676C31.4706 40.5398 31.82 40.9983 31.9474 41.5423Z" fill="#E3BF77"/>
</svg>
