<svg width="100" height="100" viewBox="0 0 100 100" fill="none" xmlns="http://www.w3.org/2000/svg">
<path fill-rule="evenodd" clip-rule="evenodd" d="M57.3337 48.875H61.3125C63.5525 48.875 65.375 50.6975 65.375 52.9375C65.375 55.1775 63.5525 57 61.3125 57H59.375V59.1301C60.1501 59.9666 60.625 61.085 60.625 62.3125C60.625 64.8972 58.5222 67 55.9375 67H43.4375C40.8528 67 38.75 64.8972 38.75 62.3125C38.75 61.085 39.2249 59.9666 40 59.1301V57H38.0625C35.8225 57 34 55.1775 34 52.9375C34 50.6975 35.8225 48.875 38.0625 48.875H42.0413C41.3386 47.6157 40.9375 46.1665 40.9375 44.625C40.9375 43.8889 41.0286 43.1628 41.2085 42.4575C40.0857 41.7158 39.375 40.4404 39.375 39.0625C39.375 36.8225 41.1975 35 43.4375 35C44.6592 35 45.79 35.541 46.5522 36.4536C47.5493 36.0693 48.6003 35.875 49.6875 35.875C50.7747 35.875 51.8257 36.0693 52.8228 36.4536C53.585 35.541 54.7158 35 55.9375 35C58.1775 35 60 36.8225 60 39.0625C60 40.4404 59.2893 41.7158 58.1665 42.4575C58.3464 43.1628 58.4375 43.8889 58.4375 44.625C58.4375 46.1665 58.0364 47.6157 57.3337 48.875ZM43.4375 36.875C42.2312 36.875 41.25 37.8562 41.25 39.0625C41.25 39.9666 41.8184 40.7891 42.6641 41.1089C43.1426 41.29 43.3877 41.821 43.2148 42.3025C42.9478 43.0464 42.8125 43.8279 42.8125 44.625C42.8125 48.0979 45.4011 50.9771 48.75 51.4358V49.3293L48.0183 48.9634C47.5552 48.7319 47.3674 48.1687 47.5991 47.7056C47.8306 47.2427 48.3938 47.0549 48.8567 47.2864L49.6875 47.7019L50.5183 47.2866C50.9814 47.0549 51.5444 47.2427 51.7759 47.7058C52.0076 48.1689 51.8198 48.7319 51.3567 48.9636L50.625 49.3293V51.4358C53.9739 50.9771 56.5625 48.0979 56.5625 44.625C56.5625 43.8279 56.4272 43.0464 56.1602 42.3025C55.9873 41.821 56.2324 41.29 56.7107 41.1089C57.5566 40.7891 58.125 39.9666 58.125 39.0625C58.125 37.8562 57.1438 36.875 55.9375 36.875C55.1174 36.875 54.3728 37.3284 53.9944 38.0581C53.759 38.5122 53.2026 38.6938 52.7446 38.4658C51.7898 37.991 50.7612 37.75 49.6875 37.75C48.6138 37.75 47.5852 37.991 46.6304 38.4658C46.1724 38.6936 45.616 38.5122 45.3806 38.0581C45.0022 37.3284 44.2576 36.875 43.4375 36.875ZM43.4375 59.5C41.8867 59.5 40.625 60.7617 40.625 62.3125C40.625 63.8633 41.8867 65.125 43.4375 65.125C44.9883 65.125 46.25 63.8633 46.25 62.3125C46.25 60.7617 44.9883 59.5 43.4375 59.5ZM53.125 62.3125C53.125 63.8633 54.3867 65.125 55.9375 65.125C57.4883 65.125 58.75 63.8633 58.75 62.3125C58.75 60.7617 57.4883 59.5 55.9375 59.5C54.3867 59.5 53.125 60.7617 53.125 62.3125ZM58.4375 55.125H61.3125C62.5188 55.125 63.5 54.1438 63.5 52.9375C63.5 51.7312 62.5188 50.75 61.3125 50.75H55.9297C54.3408 52.3689 52.1296 53.375 49.6875 53.375C47.2454 53.375 45.0342 52.3689 43.4453 50.75H38.0625C36.8562 50.75 35.875 51.7312 35.875 52.9375C35.875 54.1438 36.8562 55.125 38.0625 55.125H40.9375C41.4553 55.125 41.875 55.5447 41.875 56.0625V57.8938C42.364 57.7202 42.8896 57.625 43.4375 57.625C46.0222 57.625 48.125 59.7278 48.125 62.3125C48.125 63.3669 47.7749 64.3411 47.1851 65.125H52.1899C51.6001 64.3411 51.25 63.3669 51.25 62.3125C51.25 59.7278 53.3528 57.625 55.9375 57.625C56.4854 57.625 57.011 57.7202 57.5 57.8938V56.0625C57.5 55.5447 57.9197 55.125 58.4375 55.125ZM47.1875 44.5625C47.1875 45.0803 46.7678 45.5 46.25 45.5C45.7322 45.5 45.3125 45.0803 45.3125 44.5625C45.3125 44.0447 45.7322 43.625 46.25 43.625C46.7678 43.625 47.1875 44.0447 47.1875 44.5625ZM54.0625 44.5625C54.0625 45.0803 53.6428 45.5 53.125 45.5C52.6072 45.5 52.1875 45.0803 52.1875 44.5625C52.1875 44.0447 52.6072 43.625 53.125 43.625C53.6428 43.625 54.0625 44.0447 54.0625 44.5625Z" fill="#E3BF77"/>
</svg>
