<svg width="100" height="100" viewBox="0 0 100 100" color="red" fill=" #e3bf77" xmlns="http://www.w3.org/2000/svg">
<path fill-rule="evenodd" clip-rule="evenodd" d="M69.2581 44.1223L69.2304 65.9532C69.2299 66.3855 69.1304 66.7951 68.9534 67.1605C68.9141 67.2418 68.871 67.3207 68.8243 67.3974C68.7776 67.474 68.7273 67.5481 68.6736 67.6196C68.1639 68.2991 67.3515 68.739 66.4388 68.7378C66.3232 68.7377 66.209 68.7304 66.0971 68.7165C64.8065 68.5565 63.7872 67.5111 63.6663 66.2097C63.6583 66.1229 63.6542 66.035 63.6543 65.9461L63.6895 38.2725C63.6905 37.4777 64.1791 36.8041 64.9343 36.5564C65.6897 36.3086 66.4822 36.5619 66.9537 37.2016L67.0154 37.2854C67.5688 38.0361 68.0301 38.8539 68.3864 39.7161C68.9668 41.1204 69.2601 42.6029 69.2581 44.1223ZM65.4458 38.1152C65.3305 38.153 65.3303 38.2414 65.3303 38.2745L65.308 55.7523L67.6029 55.7553L67.6177 44.1202C67.6193 42.8176 67.3679 41.5466 66.8703 40.3426C66.5649 39.6036 66.1694 38.9025 65.6948 38.2587L65.6331 38.175C65.6189 38.1557 65.5875 38.1129 65.5271 38.1054C65.5043 38.1026 65.4775 38.1048 65.4458 38.1152ZM66.4411 67.0971C66.876 67.0977 67.2555 66.8548 67.4505 66.4974C67.5391 66.3349 67.5897 66.1488 67.5899 65.9511L67.6008 57.3959L65.3059 57.393L65.295 65.9482C65.2942 66.5809 65.808 67.0968 66.4411 67.0971ZM37.461 53.755C37.461 46.9008 43.0372 41.3246 49.8914 41.3246C56.7456 41.3246 62.3219 46.9008 62.3219 53.755C62.3219 60.6092 56.7455 66.1855 49.8914 66.1855C43.0373 66.1855 37.461 60.6092 37.461 53.755ZM39.1015 53.7549C39.1015 59.7045 43.9419 64.5448 49.8914 64.5448C55.841 64.5448 60.6813 59.7045 60.6813 53.7549C60.6813 47.8054 55.841 42.9651 49.8914 42.9651C43.9418 42.9651 39.1015 47.8054 39.1015 53.7549ZM37.1552 37.011C36.7019 37.0101 36.3343 37.3771 36.3336 37.8301L36.3245 43.952C36.323 44.906 35.6493 45.7074 34.7161 45.8787L34.1683 45.8779L34.1803 37.827C34.181 37.374 33.8142 37.0062 33.3612 37.0054C32.908 37.0043 32.5403 37.3715 32.5396 37.8245L32.5276 45.8754L31.9793 45.8747C31.0467 45.7004 30.3756 44.8971 30.377 43.9431L30.3861 37.8213C30.3868 37.3683 30.0201 37.0005 29.567 36.9997C29.1139 36.9985 28.7462 37.3658 28.7455 37.8188L28.7363 43.9406C28.7341 45.4723 29.676 46.7939 31.0577 47.315L30.4494 65.48L30.4492 65.4862C30.4291 66.262 30.7162 66.9956 31.2573 67.5518C31.7985 68.108 32.524 68.415 33.2994 68.4161L33.3144 68.4161C33.4342 68.4163 33.5528 68.4092 33.6697 68.395C34.3137 68.3169 34.9065 68.0241 35.3665 67.5508C35.9101 66.9917 36.1967 66.2545 36.1735 65.475L35.6336 47.322C37.017 46.8051 37.963 45.4862 37.9652 43.9544L37.9744 37.8326C37.975 37.3796 37.6082 37.0118 37.1552 37.011ZM34.5337 65.5239C34.5435 65.8556 34.4216 66.1693 34.1902 66.4073C33.9589 66.6453 33.6491 66.7766 33.3175 66.7756L33.3025 66.7756C32.9722 66.7751 32.6635 66.6445 32.4332 66.4078C32.2034 66.1717 32.0813 65.8605 32.0892 65.5314L32.6926 47.5164L33.3448 47.5174L33.3457 47.5174L33.3464 47.5174L33.9981 47.5183L34.5337 65.5239ZM56.0672 53.5841C56.0672 57.0083 53.2914 59.7841 49.8672 59.7841C46.4431 59.7841 43.6672 57.0083 43.6672 53.5841C43.6672 50.1599 46.4431 47.3841 49.8672 47.3841C53.2914 47.3841 56.0672 50.1599 56.0672 53.5841ZM57.8672 53.5841C57.8672 58.0024 54.2855 61.5841 49.8672 61.5841C45.449 61.5841 41.8672 58.0024 41.8672 53.5841C41.8672 49.1658 45.449 45.5841 49.8672 45.5841C54.2855 45.5841 57.8672 49.1658 57.8672 53.5841Z" />
</svg>
