<svg width="100" height="100" viewBox="0 0 100 100" fill="none" xmlns="http://www.w3.org/2000/svg">
<path fill-rule="evenodd" clip-rule="evenodd" d="M63.6582 54.3684C64.4245 53.9864 65.293 53.5535 66.9539 53.5535C67.5365 53.5535 68.0088 54.0258 68.0088 54.6084C68.0088 55.191 67.5365 55.6634 66.9539 55.6634C65.7897 55.6634 65.2645 55.9252 64.5996 56.2566L64.5994 56.2567C63.8331 56.6387 62.9646 57.0716 61.3038 57.0716C59.6429 57.0716 58.7744 56.6387 58.0082 56.2567L58.0078 56.2565C57.3429 55.9251 56.8177 55.6634 55.6537 55.6634C54.4896 55.6634 53.9644 55.9252 53.2995 56.2567C52.5332 56.6387 51.6647 57.0716 50.0039 57.0716C48.3431 57.0716 47.4747 56.6387 46.7085 56.2567L46.7082 56.2566C46.0434 55.9252 45.5182 55.6634 44.3543 55.6634C43.1902 55.6634 42.665 55.9252 42.0001 56.2567C41.2339 56.6387 40.3654 57.0716 38.7046 57.0716C37.0438 57.0716 36.1754 56.6387 35.4091 56.2567C34.7442 55.9252 34.219 55.6634 33.0549 55.6634C32.4723 55.6634 32 55.191 32 54.6084C32 54.0258 32.4723 53.5535 33.0549 53.5535C34.7156 53.5535 35.584 53.9864 36.3502 54.3683L36.3504 54.3684L36.3506 54.3685C37.0154 54.6998 37.5406 54.9616 38.7046 54.9616C39.8687 54.9616 40.3939 54.6999 41.0588 54.3684C41.7044 54.0466 42.4226 53.6887 43.6258 53.5839V39.8547H33.0549C32.4723 39.8547 32 39.3823 32 38.7997C32 38.2171 32.4723 37.7448 33.0549 37.7448H43.6258V33.167C43.6258 31.4207 45.0456 30 46.7906 30C48.5356 30 49.9554 31.4207 49.9554 33.167V37.7448H54.2803V33.167C54.2803 31.4207 55.7001 30 57.445 30C59.1901 30 60.6098 31.4207 60.6098 33.167V37.7448H66.9539C67.5365 37.7448 68.0088 38.2171 68.0088 38.7997C68.0088 39.3823 67.5365 39.8547 66.9539 39.8547H56.3901V53.5846C57.5887 53.6903 58.3052 54.0473 58.9494 54.3684L58.95 54.3687C59.6148 54.7 60.14 54.9616 61.3038 54.9616C62.4679 54.9616 62.9932 54.6999 63.6582 54.3684ZM54.2803 45.774H45.7357V49.2967H54.2803V45.774ZM57.445 32.1099C56.8634 32.1099 56.3902 32.5841 56.3902 33.167V37.7448H58.4999V33.167C58.4999 32.5841 58.0267 32.1099 57.445 32.1099ZM46.7906 32.1099C46.209 32.1099 45.7357 32.5841 45.7357 33.167V37.7448H47.8455V33.167C47.8455 32.5841 47.3723 32.1099 46.7906 32.1099ZM54.2803 43.6641V39.8547H45.7357V43.6641H54.2803ZM50.004 54.9616C51.168 54.9616 51.6933 54.6999 52.3583 54.3684C52.8793 54.1087 53.4478 53.8255 54.2803 53.6708V51.4066H45.7357V53.6723C46.5639 53.8274 47.1305 54.1095 47.6498 54.3684L47.65 54.3685C48.3148 54.6998 48.8401 54.9616 50.004 54.9616ZM63.6582 59.2968C64.4245 58.9148 65.293 58.482 66.9539 58.482C67.5365 58.482 68.0088 58.9543 68.0089 59.5369C68.0089 60.1195 67.5365 60.5919 66.9539 60.5919C65.7897 60.5919 65.2644 60.8537 64.5994 61.1852C63.8332 61.5671 62.9647 62 61.3039 62C59.643 62 58.7745 61.5671 58.0083 61.1852L58.0081 61.185C57.3431 60.8536 56.8179 60.5919 55.6538 60.5919C54.4897 60.5919 53.9645 60.8537 53.2996 61.1851L53.2995 61.1852C52.5333 61.5671 51.6648 62 50.004 62C48.3433 62 47.475 61.5672 46.7087 61.1852L46.7085 61.1852L46.7083 61.185C46.0434 60.8536 45.5183 60.5919 44.3544 60.5919C43.1904 60.5919 42.6651 60.8537 42.0002 61.1851L42.0001 61.1852C41.2339 61.5671 40.3654 62 38.7047 62C37.0438 62 36.1754 61.5671 35.4092 61.1852L35.409 61.1851C34.7441 60.8537 34.2189 60.5919 33.0549 60.5919C32.4723 60.5919 32 60.1195 32 59.5369C32 58.9543 32.4723 58.482 33.0549 58.482C34.7155 58.482 35.584 58.9149 36.3502 59.2967L36.3503 59.2968L36.3504 59.2969C37.0153 59.6283 37.5406 59.8901 38.7046 59.8901C39.8686 59.8901 40.3939 59.6283 41.0588 59.2969L41.0589 59.2968C41.8251 58.9148 42.6936 58.482 44.3543 58.482C46.0151 58.482 46.8834 58.9148 47.6497 59.2968L47.6497 59.2968L47.6498 59.2969C48.3147 59.6283 48.84 59.8901 50.0039 59.8901C51.1679 59.8901 51.6932 59.6283 52.3581 59.2969L52.3582 59.2968C53.1244 58.9148 53.9929 58.482 55.6537 58.482C57.3146 58.482 58.183 58.9148 58.9493 59.2968L58.9494 59.2968L58.9496 59.2969C59.6145 59.6283 60.1397 59.8901 61.3038 59.8901C62.4679 59.8901 62.9932 59.6283 63.6582 59.2968Z" fill="#E3BF77"/>
</svg>
