<svg width="40" height="40" viewBox="0 0 40 40" fill="none" xmlns="http://www.w3.org/2000/svg">
<path fill-rule="evenodd" clip-rule="evenodd" d="M23.3534 11H15.7084C13.1122 11 11 13.1123 11 15.7085V23.3535C11 25.9498 13.1122 28.062 15.7084 28.062H23.3534C25.9498 28.062 28.062 25.9497 28.062 23.3535V15.7085C28.0621 13.1123 25.9498 11 23.3534 11ZM26.5483 23.3535C26.5483 25.1151 25.1151 26.5482 23.3535 26.5482H15.7084C13.9469 26.5483 12.5138 25.1151 12.5138 23.3535V15.7085C12.5138 13.947 13.9469 12.5138 15.7084 12.5138H23.3534C25.115 12.5138 26.5482 13.947 26.5482 15.7085V23.3535H26.5483ZM19.5312 15.1348C17.107 15.1348 15.1348 17.107 15.1348 19.5312C15.1348 21.9553 17.107 23.9275 19.5312 23.9275C21.9554 23.9275 23.9277 21.9553 23.9277 19.5312C23.9277 17.107 21.9554 15.1348 19.5312 15.1348ZM19.5312 22.4135C17.9418 22.4135 16.6486 21.1205 16.6486 19.5311C16.6486 17.9416 17.9417 16.6485 19.5312 16.6485C21.1207 16.6485 22.4138 17.9416 22.4138 19.5311C22.4138 21.1205 21.1206 22.4135 19.5312 22.4135ZM23.3279 14.1761C23.5339 13.9692 23.8204 13.8511 24.1121 13.8511C24.4048 13.8511 24.6914 13.9692 24.8973 14.1761C25.1041 14.382 25.2222 14.6686 25.2222 14.9613C25.2222 15.2529 25.1041 15.5396 24.8973 15.7464C24.6904 15.9523 24.4048 16.0714 24.1121 16.0714C23.8204 16.0714 23.5338 15.9523 23.3279 15.7464C23.121 15.5396 23.002 15.253 23.002 14.9613C23.002 14.6686 23.1209 14.382 23.3279 14.1761Z" fill="#ABABAB"/>
</svg>
