<svg width="19" height="19" viewBox="0 0 19 19" fill="none" xmlns="http://www.w3.org/2000/svg">
<path fill-rule="evenodd" clip-rule="evenodd" d="M7.72536 0.0915083C8.2271 0.322312 8.44674 0.91616 8.21594 1.41791L6.39124 5.38461H12.6088L10.7841 1.41791C10.5533 0.91616 10.7729 0.322312 11.2747 0.0915083C11.7764 -0.139296 12.3702 0.0803454 12.6011 0.58209L14.8102 5.38461H16.7202C17.9282 5.38461 18.8605 6.4473 18.7032 7.64501L17.5012 16.7989C17.3705 17.7942 16.5221 18.5385 15.5182 18.5385H3.48182C2.47791 18.5385 1.62955 17.7942 1.49885 16.7989L0.296826 7.64501C0.139552 6.44731 1.07182 5.38461 2.2798 5.38461H4.18979L6.39896 0.58209C6.62977 0.0803454 7.22361 -0.139296 7.72536 0.0915083ZM2.2798 7.38461H16.7202L15.5182 16.5385H3.48182L2.2798 7.38461Z" fill="white"/>
</svg>
