<svg width="35" height="19" viewBox="0 0 35 19" fill="none" xmlns="http://www.w3.org/2000/svg">
<g clip-path="url(#clip0_1_63)">
<path d="M30.5096 6.48354C29.7686 5.27657 28.7299 4.34033 27.3934 3.6753C26.6648 3.31286 25.8761 3.04923 25.0272 2.8844H21.8369V5.72703H22.5931C22.6469 5.72703 22.7003 5.72749 22.7535 5.72864V3.80138H25.6864C27.1627 3.80138 28.3487 4.21104 29.2111 5.01867C30.0772 5.82974 30.4982 6.90879 30.4982 8.3175C30.4982 9.72643 30.0772 10.8054 29.2111 11.6163C28.7551 12.0434 28.2087 12.359 27.5767 12.5617C27.4431 12.9516 27.2626 13.3102 27.0353 13.6377C28.1475 13.4415 29.0865 12.989 29.8376 12.2857C30.8029 11.3818 31.3292 10.1755 31.4053 8.69621C31.2227 7.8966 30.9241 7.15889 30.5096 6.48354ZM30.5096 6.48354C29.7686 5.27657 28.7299 4.34033 27.3934 3.6753C26.6648 3.31286 25.8761 3.04923 25.0272 2.8844H21.8369V5.72703H22.5931C22.6469 5.72703 22.7003 5.72749 22.7535 5.72864V3.80138H25.6864C27.1627 3.80138 28.3487 4.21104 29.2111 5.01867C30.0772 5.82974 30.4982 6.90879 30.4982 8.3175C30.4982 9.72643 30.0772 10.8054 29.2111 11.6163C28.7551 12.0434 28.2087 12.359 27.5767 12.5617C27.4431 12.9516 27.2626 13.3102 27.0353 13.6377C28.1475 13.4415 29.0865 12.989 29.8376 12.2857C30.8029 11.3818 31.3292 10.1755 31.4053 8.69621C31.2227 7.8966 30.9241 7.15889 30.5096 6.48354ZM30.5096 6.48354C29.7686 5.27657 28.7299 4.34033 27.3934 3.6753C26.6648 3.31286 25.8761 3.04923 25.0272 2.8844H21.8369V5.72703H22.5931C22.6469 5.72703 22.7003 5.72749 22.7535 5.72864V3.80138H25.6864C27.1627 3.80138 28.3487 4.21104 29.2111 5.01867C30.0772 5.82974 30.4982 6.90879 30.4982 8.3175C30.4982 9.72643 30.0772 10.8054 29.2111 11.6163C28.7551 12.0434 28.2087 12.359 27.5767 12.5617C27.4431 12.9516 27.2626 13.3102 27.0353 13.6377C28.1475 13.4415 29.0865 12.989 29.8376 12.2857C30.8029 11.3818 31.3292 10.1755 31.4053 8.69621C31.2227 7.8966 30.9241 7.15889 30.5096 6.48354ZM30.5096 6.48354C29.7686 5.27657 28.7299 4.34033 27.3934 3.6753C26.6648 3.31286 25.8761 3.04923 25.0272 2.8844H21.8369V5.72703H22.5931C22.6469 5.72703 22.7003 5.72749 22.7535 5.72864V3.80138H25.6864C27.1627 3.80138 28.3487 4.21104 29.2111 5.01867C30.0772 5.82974 30.4982 6.90879 30.4982 8.3175C30.4982 9.72643 30.0772 10.8054 29.2111 11.6163C28.7551 12.0434 28.2087 12.359 27.5767 12.5617C27.4431 12.9516 27.2626 13.3102 27.0353 13.6377C28.1475 13.4415 29.0865 12.989 29.8376 12.2857C30.8029 11.3818 31.3292 10.1755 31.4053 8.69621C31.2227 7.8966 30.9241 7.15889 30.5096 6.48354ZM30.5096 6.48354C29.7686 5.27657 28.7299 4.34033 27.3934 3.6753C26.6648 3.31286 25.8761 3.04923 25.0272 2.8844H21.8369V5.72703H22.5931C22.6469 5.72703 22.7003 5.72749 22.7535 5.72864V3.80138H25.6864C27.1627 3.80138 28.3487 4.21104 29.2111 5.01867C30.0772 5.82974 30.4982 6.90879 30.4982 8.3175C30.4982 9.72643 30.0772 10.8054 29.2111 11.6163C28.7551 12.0434 28.2087 12.359 27.5767 12.5617C27.4431 12.9516 27.2626 13.3102 27.0353 13.6377C28.1475 13.4415 29.0865 12.989 29.8376 12.2857C30.8029 11.3818 31.3292 10.1755 31.4053 8.69621C31.2227 7.8966 30.9241 7.15889 30.5096 6.48354ZM30.5096 6.48354C29.7686 5.27657 28.7299 4.34033 27.3934 3.6753C26.6648 3.31286 25.8761 3.04923 25.0272 2.8844H21.8369V5.72703H22.5931C22.6469 5.72703 22.7003 5.72749 22.7535 5.72864V3.80138H25.6864C27.1627 3.80138 28.3487 4.21104 29.2111 5.01867C30.0772 5.82974 30.4982 6.90879 30.4982 8.3175C30.4982 9.72643 30.0772 10.8054 29.2111 11.6163C28.7551 12.0434 28.2087 12.359 27.5767 12.5617C27.4431 12.9516 27.2626 13.3102 27.0353 13.6377C28.1475 13.4415 29.0865 12.989 29.8376 12.2857C30.8029 11.3818 31.3292 10.1755 31.4053 8.69621C31.2227 7.8966 30.9241 7.15889 30.5096 6.48354ZM30.5096 6.48354C29.7686 5.27657 28.7299 4.34033 27.3934 3.6753C26.6648 3.31286 25.8761 3.04923 25.0272 2.8844H21.8369V5.72703H22.5931C22.6469 5.72703 22.7003 5.72749 22.7535 5.72864V3.80138H25.6864C27.1627 3.80138 28.3487 4.21104 29.2111 5.01867C30.0772 5.82974 30.4982 6.90879 30.4982 8.3175C30.4982 9.72643 30.0772 10.8054 29.2111 11.6163C28.7551 12.0434 28.2087 12.359 27.5767 12.5617C27.4431 12.9516 27.2626 13.3102 27.0353 13.6377C28.1475 13.4415 29.0865 12.989 29.8376 12.2857C30.8029 11.3818 31.3292 10.1755 31.4053 8.69621C31.2227 7.8966 30.9241 7.15889 30.5096 6.48354ZM30.5096 6.48354C29.7686 5.27657 28.7299 4.34033 27.3934 3.6753C26.6648 3.31286 25.8761 3.04923 25.0272 2.8844H21.8369V5.72703H22.5931C22.6469 5.72703 22.7003 5.72749 22.7535 5.72864V3.80138H25.6864C27.1627 3.80138 28.3487 4.21104 29.2111 5.01867C30.0772 5.82974 30.4982 6.90879 30.4982 8.3175C30.4982 9.72643 30.0772 10.8054 29.2111 11.6163C28.7551 12.0434 28.2087 12.359 27.5767 12.5617C27.4431 12.9516 27.2626 13.3102 27.0353 13.6377C28.1475 13.4415 29.0865 12.989 29.8376 12.2857C30.8029 11.3818 31.3292 10.1755 31.4053 8.69621C31.2227 7.8966 30.9241 7.15889 30.5096 6.48354ZM30.5096 6.48354C29.7686 5.27657 28.7299 4.34033 27.3934 3.6753C26.6648 3.31286 25.8761 3.04923 25.0272 2.8844H21.8369V5.72703H22.5931C22.6469 5.72703 22.7003 5.72749 22.7535 5.72864V3.80138H25.6864C27.1627 3.80138 28.3487 4.21104 29.2111 5.01867C30.0772 5.82974 30.4982 6.90879 30.4982 8.3175C30.4982 9.72643 30.0772 10.8054 29.2111 11.6163C28.7551 12.0434 28.2087 12.359 27.5767 12.5617C27.4431 12.9516 27.2626 13.3102 27.0353 13.6377C28.1475 13.4415 29.0865 12.989 29.8376 12.2857C30.8029 11.3818 31.3292 10.1755 31.4053 8.69621C31.2227 7.8966 30.9241 7.15889 30.5096 6.48354ZM30.5096 6.48354C29.7686 5.27657 28.7299 4.34033 27.3934 3.6753C26.6648 3.31286 25.8761 3.04923 25.0272 2.8844H21.8369V5.72703H22.5931C22.6469 5.72703 22.7003 5.72749 22.7535 5.72864V3.80138H25.6864C27.1627 3.80138 28.3487 4.21104 29.2111 5.01867C30.0772 5.82974 30.4982 6.90879 30.4982 8.3175C30.4982 9.72643 30.0772 10.8054 29.2111 11.6163C28.7551 12.0434 28.2087 12.359 27.5767 12.5617C27.4431 12.9516 27.2626 13.3102 27.0353 13.6377C28.1475 13.4415 29.0865 12.989 29.8376 12.2857C30.8029 11.3818 31.3292 10.1755 31.4053 8.69621C31.2227 7.8966 30.9241 7.15889 30.5096 6.48354ZM30.5096 6.48354C29.7686 5.27657 28.7299 4.34033 27.3934 3.6753C26.6648 3.31286 25.8761 3.04923 25.0272 2.8844H21.8369V5.72703H22.5931C22.6469 5.72703 22.7003 5.72749 22.7535 5.72864V3.80138H25.6864C27.1627 3.80138 28.3487 4.21104 29.2111 5.01867C30.0772 5.82974 30.4982 6.90879 30.4982 8.3175C30.4982 9.72643 30.0772 10.8054 29.2111 11.6163C28.7551 12.0434 28.2087 12.359 27.5767 12.5617C27.4431 12.9516 27.2626 13.3102 27.0353 13.6377C28.1475 13.4415 29.0865 12.989 29.8376 12.2857C30.8029 11.3818 31.3292 10.1755 31.4053 8.69621C31.2227 7.8966 30.9241 7.15889 30.5096 6.48354ZM30.5096 6.48354C29.7686 5.27657 28.7299 4.34033 27.3934 3.6753C26.6648 3.31286 25.8761 3.04923 25.0272 2.8844H21.8369V5.72703H22.5931C22.6469 5.72703 22.7003 5.72749 22.7535 5.72864V3.80138H25.6864C27.1627 3.80138 28.3487 4.21104 29.2111 5.01867C30.0772 5.82974 30.4982 6.90879 30.4982 8.3175C30.4982 9.72643 30.0772 10.8054 29.2111 11.6163C28.7551 12.0434 28.2087 12.359 27.5767 12.5617C27.4431 12.9516 27.2626 13.3102 27.0353 13.6377C28.1475 13.4415 29.0865 12.989 29.8376 12.2857C30.8029 11.3818 31.3292 10.1755 31.4053 8.69621C31.2227 7.8966 30.9241 7.15889 30.5096 6.48354ZM30.5096 6.48354C29.7686 5.27657 28.7299 4.34033 27.3934 3.6753C26.6648 3.31286 25.8761 3.04923 25.0272 2.8844H21.8369V5.72703H22.5931C22.6469 5.72703 22.7003 5.72749 22.7535 5.72864V3.80138H25.6864C27.1627 3.80138 28.3487 4.21104 29.2111 5.01867C30.0772 5.82974 30.4982 6.90879 30.4982 8.3175C30.4982 9.72643 30.0772 10.8054 29.2111 11.6163C28.7551 12.0434 28.2087 12.359 27.5767 12.5617C27.4431 12.9516 27.2626 13.3102 27.0353 13.6377C28.1475 13.4415 29.0865 12.989 29.8376 12.2857C30.8029 11.3818 31.3292 10.1755 31.4053 8.69621C31.2227 7.8966 30.9241 7.15889 30.5096 6.48354ZM30.5096 6.48354C29.7686 5.27657 28.7299 4.34033 27.3934 3.6753C26.6648 3.31286 25.8761 3.04923 25.0272 2.8844H21.8369V5.72703H22.5931C22.6469 5.72703 22.7003 5.72749 22.7535 5.72864V3.80138H25.6864C27.1627 3.80138 28.3487 4.21104 29.2111 5.01867C30.0772 5.82974 30.4982 6.90879 30.4982 8.3175C30.4982 9.72643 30.0772 10.8054 29.2111 11.6163C28.7551 12.0434 28.2087 12.359 27.5767 12.5617C27.4431 12.9516 27.2626 13.3102 27.0353 13.6377C28.1475 13.4415 29.0865 12.989 29.8376 12.2857C30.8029 11.3818 31.3292 10.1755 31.4053 8.69621C31.2227 7.8966 30.9241 7.15889 30.5096 6.48354ZM30.5096 6.48354C29.7686 5.27657 28.7299 4.34033 27.3934 3.6753C26.6648 3.31286 25.8761 3.04923 25.0272 2.8844H21.8369V5.72703H22.5931C22.6469 5.72703 22.7003 5.72749 22.7535 5.72864V3.80138H25.6864C27.1627 3.80138 28.3487 4.21104 29.2111 5.01867C30.0772 5.82974 30.4982 6.90879 30.4982 8.3175C30.4982 9.72643 30.0772 10.8054 29.2111 11.6163C28.7551 12.0434 28.2087 12.359 27.5767 12.5617C27.4431 12.9516 27.2626 13.3102 27.0353 13.6377C28.1475 13.4415 29.0865 12.989 29.8376 12.2857C30.8029 11.3818 31.3292 10.1755 31.4053 8.69621C31.2227 7.8966 30.9241 7.15889 30.5096 6.48354ZM30.5096 6.48354C29.7686 5.27657 28.7299 4.34033 27.3934 3.6753C26.6648 3.31286 25.8761 3.04923 25.0272 2.8844H21.8369V5.72703H22.5931C22.6469 5.72703 22.7003 5.72749 22.7535 5.72864V3.80138H25.6864C27.1627 3.80138 28.3487 4.21104 29.2111 5.01867C30.0772 5.82974 30.4982 6.90879 30.4982 8.3175C30.4982 9.72643 30.0772 10.8054 29.2111 11.6163C28.7551 12.0434 28.2087 12.359 27.5767 12.5617C27.4431 12.9516 27.2626 13.3102 27.0353 13.6377C28.1475 13.4415 29.0865 12.989 29.8376 12.2857C30.8029 11.3818 31.3292 10.1755 31.4053 8.69621C31.2227 7.8966 30.9241 7.15889 30.5096 6.48354ZM30.5096 6.48354C29.7686 5.27657 28.7299 4.34033 27.3934 3.6753C26.6648 3.31286 25.8761 3.04923 25.0272 2.8844H21.8369V5.72703H22.5931C22.6469 5.72703 22.7003 5.72749 22.7535 5.72864V3.80138H25.6864C27.1627 3.80138 28.3487 4.21104 29.2111 5.01867C30.0772 5.82974 30.4982 6.90879 30.4982 8.3175C30.4982 9.72643 30.0772 10.8054 29.2111 11.6163C28.7551 12.0434 28.2087 12.359 27.5767 12.5617C27.4431 12.9516 27.2626 13.3102 27.0353 13.6377C28.1475 13.4415 29.0865 12.989 29.8376 12.2857C30.8029 11.3818 31.3292 10.1755 31.4053 8.69621C31.2227 7.8966 30.9241 7.15889 30.5096 6.48354ZM30.5096 6.48354C29.7686 5.27657 28.7299 4.34033 27.3934 3.6753C26.6648 3.31286 25.8761 3.04923 25.0272 2.8844H21.8369V5.72703H22.5931C22.6469 5.72703 22.7003 5.72749 22.7535 5.72864V3.80138H25.6864C27.1627 3.80138 28.3487 4.21104 29.2111 5.01867C30.0772 5.82974 30.4982 6.90879 30.4982 8.3175C30.4982 9.72643 30.0772 10.8054 29.2111 11.6163C28.7551 12.0434 28.2087 12.359 27.5767 12.5617C27.4431 12.9516 27.2626 13.3102 27.0353 13.6377C28.1475 13.4415 29.0865 12.989 29.8376 12.2857C30.8029 11.3818 31.3292 10.1755 31.4053 8.69621C31.2227 7.8966 30.9241 7.15889 30.5096 6.48354ZM33.9933 3.85938C33.2102 2.58364 32.0991 1.58138 30.6906 0.880575C29.2961 0.18711 27.6741 -0.164551 25.8697 -0.164551H18.125V1.29276L18.6424 0.752427H25.8697C27.5313 0.752427 29.0161 1.07177 30.2825 1.70173C31.5347 2.32482 32.5205 3.21222 33.2125 4.33919C33.9049 5.46776 34.2559 6.80632 34.2559 8.3175C34.2559 9.82913 33.9047 11.1674 33.2125 12.2958C32.7785 13.0027 32.229 13.6155 31.5705 14.1274L31.5671 14.1297C31.2671 14.3628 30.9454 14.5751 30.6015 14.7656C30.4972 14.8236 30.3909 14.8793 30.2828 14.9332C30.2431 14.9529 30.2035 14.9722 30.1634 14.9914C28.9233 15.5829 27.4796 15.8825 25.8697 15.8825H19.0415V2.67808H18.125V16.7995H25.8697C26.4175 16.7995 26.9487 16.7672 27.4617 16.7025C28.1615 16.6145 28.8273 16.4666 29.4565 16.2594C29.8538 16.1287 30.2367 15.9747 30.6038 15.797L30.6042 15.7968C30.6331 15.7828 30.662 15.7686 30.6906 15.7544C31.197 15.5027 31.6647 15.2117 32.0927 14.883L32.0929 14.8828C32.1007 14.8773 32.1083 14.8713 32.1161 14.8651C32.8685 14.2835 33.4968 13.5846 33.9933 12.7756C34.7756 11.501 35.1725 10.001 35.1725 8.3175C35.1725 6.63438 34.7758 5.13444 33.9933 3.85938ZM29.2111 11.6163C28.7551 12.0434 28.2087 12.359 27.5767 12.5617C27.4431 12.9516 27.2626 13.3102 27.0353 13.6377C28.1475 13.4415 29.0865 12.989 29.8376 12.2857C30.8029 11.3818 31.3292 10.1755 31.4053 8.69621C31.2227 7.8966 30.9241 7.15889 30.5096 6.48354C29.7686 5.27657 28.7299 4.34033 27.3934 3.6753C26.6648 3.31286 25.8761 3.04923 25.0272 2.8844H21.8369V5.72703H22.5931C22.6469 5.72703 22.7003 5.72749 22.7535 5.72864V3.80138H25.6864C27.1627 3.80138 28.3487 4.21104 29.2111 5.01867C30.0772 5.82974 30.4982 6.90879 30.4982 8.3175C30.4982 9.72643 30.0772 10.8054 29.2111 11.6163ZM30.5096 6.48354C29.7686 5.27657 28.7299 4.34033 27.3934 3.6753C26.6648 3.31286 25.8761 3.04923 25.0272 2.8844H21.8369V5.72703H22.5931C22.6469 5.72703 22.7003 5.72749 22.7535 5.72864V3.80138H25.6864C27.1627 3.80138 28.3487 4.21104 29.2111 5.01867C30.0772 5.82974 30.4982 6.90879 30.4982 8.3175C30.4982 9.72643 30.0772 10.8054 29.2111 11.6163C28.7551 12.0434 28.2087 12.359 27.5767 12.5617C27.4431 12.9516 27.2626 13.3102 27.0353 13.6377C28.1475 13.4415 29.0865 12.989 29.8376 12.2857C30.8029 11.3818 31.3292 10.1755 31.4053 8.69621C31.2227 7.8966 30.9241 7.15889 30.5096 6.48354ZM30.5096 6.48354C29.7686 5.27657 28.7299 4.34033 27.3934 3.6753C26.6648 3.31286 25.8761 3.04923 25.0272 2.8844H21.8369V5.72703H22.5931C22.6469 5.72703 22.7003 5.72749 22.7535 5.72864V3.80138H25.6864C27.1627 3.80138 28.3487 4.21104 29.2111 5.01867C30.0772 5.82974 30.4982 6.90879 30.4982 8.3175C30.4982 9.72643 30.0772 10.8054 29.2111 11.6163C28.7551 12.0434 28.2087 12.359 27.5767 12.5617C27.4431 12.9516 27.2626 13.3102 27.0353 13.6377C28.1475 13.4415 29.0865 12.989 29.8376 12.2857C30.8029 11.3818 31.3292 10.1755 31.4053 8.69621C31.2227 7.8966 30.9241 7.15889 30.5096 6.48354ZM30.5096 6.48354C29.7686 5.27657 28.7299 4.34033 27.3934 3.6753C26.6648 3.31286 25.8761 3.04923 25.0272 2.8844H21.8369V5.72703H22.5931C22.6469 5.72703 22.7003 5.72749 22.7535 5.72864V3.80138H25.6864C27.1627 3.80138 28.3487 4.21104 29.2111 5.01867C30.0772 5.82974 30.4982 6.90879 30.4982 8.3175C30.4982 9.72643 30.0772 10.8054 29.2111 11.6163C28.7551 12.0434 28.2087 12.359 27.5767 12.5617C27.4431 12.9516 27.2626 13.3102 27.0353 13.6377C28.1475 13.4415 29.0865 12.989 29.8376 12.2857C30.8029 11.3818 31.3292 10.1755 31.4053 8.69621C31.2227 7.8966 30.9241 7.15889 30.5096 6.48354ZM30.5096 6.48354C29.7686 5.27657 28.7299 4.34033 27.3934 3.6753C26.6648 3.31286 25.8761 3.04923 25.0272 2.8844H21.8369V5.72703H22.5931C22.6469 5.72703 22.7003 5.72749 22.7535 5.72864V3.80138H25.6864C27.1627 3.80138 28.3487 4.21104 29.2111 5.01867C30.0772 5.82974 30.4982 6.90879 30.4982 8.3175C30.4982 9.72643 30.0772 10.8054 29.2111 11.6163C28.7551 12.0434 28.2087 12.359 27.5767 12.5617C27.4431 12.9516 27.2626 13.3102 27.0353 13.6377C28.1475 13.4415 29.0865 12.989 29.8376 12.2857C30.8029 11.3818 31.3292 10.1755 31.4053 8.69621C31.2227 7.8966 30.9241 7.15889 30.5096 6.48354ZM30.5096 6.48354C29.7686 5.27657 28.7299 4.34033 27.3934 3.6753C26.6648 3.31286 25.8761 3.04923 25.0272 2.8844H21.8369V5.72703H22.5931C22.6469 5.72703 22.7003 5.72749 22.7535 5.72864V3.80138H25.6864C27.1627 3.80138 28.3487 4.21104 29.2111 5.01867C30.0772 5.82974 30.4982 6.90879 30.4982 8.3175C30.4982 9.72643 30.0772 10.8054 29.2111 11.6163C28.7551 12.0434 28.2087 12.359 27.5767 12.5617C27.4431 12.9516 27.2626 13.3102 27.0353 13.6377C28.1475 13.4415 29.0865 12.989 29.8376 12.2857C30.8029 11.3818 31.3292 10.1755 31.4053 8.69621C31.2227 7.8966 30.9241 7.15889 30.5096 6.48354ZM30.5096 6.48354C29.7686 5.27657 28.7299 4.34033 27.3934 3.6753C26.6648 3.31286 25.8761 3.04923 25.0272 2.8844H21.8369V5.72703H22.5931C22.6469 5.72703 22.7003 5.72749 22.7535 5.72864V3.80138H25.6864C27.1627 3.80138 28.3487 4.21104 29.2111 5.01867C30.0772 5.82974 30.4982 6.90879 30.4982 8.3175C30.4982 9.72643 30.0772 10.8054 29.2111 11.6163C28.7551 12.0434 28.2087 12.359 27.5767 12.5617C27.4431 12.9516 27.2626 13.3102 27.0353 13.6377C28.1475 13.4415 29.0865 12.989 29.8376 12.2857C30.8029 11.3818 31.3292 10.1755 31.4053 8.69621C31.2227 7.8966 30.9241 7.15889 30.5096 6.48354ZM30.5096 6.48354C29.7686 5.27657 28.7299 4.34033 27.3934 3.6753C26.6648 3.31286 25.8761 3.04923 25.0272 2.8844H21.8369V5.72703H22.5931C22.6469 5.72703 22.7003 5.72749 22.7535 5.72864V3.80138H25.6864C27.1627 3.80138 28.3487 4.21104 29.2111 5.01867C30.0772 5.82974 30.4982 6.90879 30.4982 8.3175C30.4982 9.72643 30.0772 10.8054 29.2111 11.6163C28.7551 12.0434 28.2087 12.359 27.5767 12.5617C27.4431 12.9516 27.2626 13.3102 27.0353 13.6377C28.1475 13.4415 29.0865 12.989 29.8376 12.2857C30.8029 11.3818 31.3292 10.1755 31.4053 8.69621C31.2227 7.8966 30.9241 7.15889 30.5096 6.48354ZM30.5096 6.48354C29.7686 5.27657 28.7299 4.34033 27.3934 3.6753C26.6648 3.31286 25.8761 3.04923 25.0272 2.8844H21.8369V5.72703H22.5931C22.6469 5.72703 22.7003 5.72749 22.7535 5.72864V3.80138H25.6864C27.1627 3.80138 28.3487 4.21104 29.2111 5.01867C30.0772 5.82974 30.4982 6.90879 30.4982 8.3175C30.4982 9.72643 30.0772 10.8054 29.2111 11.6163C28.7551 12.0434 28.2087 12.359 27.5767 12.5617C27.4431 12.9516 27.2626 13.3102 27.0353 13.6377C28.1475 13.4415 29.0865 12.989 29.8376 12.2857C30.8029 11.3818 31.3292 10.1755 31.4053 8.69621C31.2227 7.8966 30.9241 7.15889 30.5096 6.48354ZM30.5096 6.48354C29.7686 5.27657 28.7299 4.34033 27.3934 3.6753C26.6648 3.31286 25.8761 3.04923 25.0272 2.8844H21.8369V5.72703H22.5931C22.6469 5.72703 22.7003 5.72749 22.7535 5.72864V3.80138H25.6864C27.1627 3.80138 28.3487 4.21104 29.2111 5.01867C30.0772 5.82974 30.4982 6.90879 30.4982 8.3175C30.4982 9.72643 30.0772 10.8054 29.2111 11.6163C28.7551 12.0434 28.2087 12.359 27.5767 12.5617C27.4431 12.9516 27.2626 13.3102 27.0353 13.6377C28.1475 13.4415 29.0865 12.989 29.8376 12.2857C30.8029 11.3818 31.3292 10.1755 31.4053 8.69621C31.2227 7.8966 30.9241 7.15889 30.5096 6.48354ZM30.5096 6.48354C29.7686 5.27657 28.7299 4.34033 27.3934 3.6753C26.6648 3.31286 25.8761 3.04923 25.0272 2.8844H21.8369V5.72703H22.5931C22.6469 5.72703 22.7003 5.72749 22.7535 5.72864V3.80138H25.6864C27.1627 3.80138 28.3487 4.21104 29.2111 5.01867C30.0772 5.82974 30.4982 6.90879 30.4982 8.3175C30.4982 9.72643 30.0772 10.8054 29.2111 11.6163C28.7551 12.0434 28.2087 12.359 27.5767 12.5617C27.4431 12.9516 27.2626 13.3102 27.0353 13.6377C28.1475 13.4415 29.0865 12.989 29.8376 12.2857C30.8029 11.3818 31.3292 10.1755 31.4053 8.69621C31.2227 7.8966 30.9241 7.15889 30.5096 6.48354ZM30.5096 6.48354C29.7686 5.27657 28.7299 4.34033 27.3934 3.6753C26.6648 3.31286 25.8761 3.04923 25.0272 2.8844H21.8369V5.72703H22.5931C22.6469 5.72703 22.7003 5.72749 22.7535 5.72864V3.80138H25.6864C27.1627 3.80138 28.3487 4.21104 29.2111 5.01867C30.0772 5.82974 30.4982 6.90879 30.4982 8.3175C30.4982 9.72643 30.0772 10.8054 29.2111 11.6163C28.7551 12.0434 28.2087 12.359 27.5767 12.5617C27.4431 12.9516 27.2626 13.3102 27.0353 13.6377C28.1475 13.4415 29.0865 12.989 29.8376 12.2857C30.8029 11.3818 31.3292 10.1755 31.4053 8.69621C31.2227 7.8966 30.9241 7.15889 30.5096 6.48354ZM30.5096 6.48354C29.7686 5.27657 28.7299 4.34033 27.3934 3.6753C26.6648 3.31286 25.8761 3.04923 25.0272 2.8844H21.8369V5.72703H22.5931C22.6469 5.72703 22.7003 5.72749 22.7535 5.72864V3.80138H25.6864C27.1627 3.80138 28.3487 4.21104 29.2111 5.01867C30.0772 5.82974 30.4982 6.90879 30.4982 8.3175C30.4982 9.72643 30.0772 10.8054 29.2111 11.6163C28.7551 12.0434 28.2087 12.359 27.5767 12.5617C27.4431 12.9516 27.2626 13.3102 27.0353 13.6377C28.1475 13.4415 29.0865 12.989 29.8376 12.2857C30.8029 11.3818 31.3292 10.1755 31.4053 8.69621C31.2227 7.8966 30.9241 7.15889 30.5096 6.48354ZM30.5096 6.48354C29.7686 5.27657 28.7299 4.34033 27.3934 3.6753C26.6648 3.31286 25.8761 3.04923 25.0272 2.8844H21.8369V5.72703H22.5931C22.6469 5.72703 22.7003 5.72749 22.7535 5.72864V3.80138H25.6864C27.1627 3.80138 28.3487 4.21104 29.2111 5.01867C30.0772 5.82974 30.4982 6.90879 30.4982 8.3175C30.4982 9.72643 30.0772 10.8054 29.2111 11.6163C28.7551 12.0434 28.2087 12.359 27.5767 12.5617C27.4431 12.9516 27.2626 13.3102 27.0353 13.6377C28.1475 13.4415 29.0865 12.989 29.8376 12.2857C30.8029 11.3818 31.3292 10.1755 31.4053 8.69621C31.2227 7.8966 30.9241 7.15889 30.5096 6.48354ZM30.5096 6.48354C29.7686 5.27657 28.7299 4.34033 27.3934 3.6753C26.6648 3.31286 25.8761 3.04923 25.0272 2.8844H21.8369V5.72703H22.5931C22.6469 5.72703 22.7003 5.72749 22.7535 5.72864V3.80138H25.6864C27.1627 3.80138 28.3487 4.21104 29.2111 5.01867C30.0772 5.82974 30.4982 6.90879 30.4982 8.3175C30.4982 9.72643 30.0772 10.8054 29.2111 11.6163C28.7551 12.0434 28.2087 12.359 27.5767 12.5617C27.4431 12.9516 27.2626 13.3102 27.0353 13.6377C28.1475 13.4415 29.0865 12.989 29.8376 12.2857C30.8029 11.3818 31.3292 10.1755 31.4053 8.69621C31.2227 7.8966 30.9241 7.15889 30.5096 6.48354ZM30.5096 6.48354C29.7686 5.27657 28.7299 4.34033 27.3934 3.6753C26.6648 3.31286 25.8761 3.04923 25.0272 2.8844H21.8369V5.72703H22.5931C22.6469 5.72703 22.7003 5.72749 22.7535 5.72864V3.80138H25.6864C27.1627 3.80138 28.3487 4.21104 29.2111 5.01867C30.0772 5.82974 30.4982 6.90879 30.4982 8.3175C30.4982 9.72643 30.0772 10.8054 29.2111 11.6163C28.7551 12.0434 28.2087 12.359 27.5767 12.5617C27.4431 12.9516 27.2626 13.3102 27.0353 13.6377C28.1475 13.4415 29.0865 12.989 29.8376 12.2857C30.8029 11.3818 31.3292 10.1755 31.4053 8.69621C31.2227 7.8966 30.9241 7.15889 30.5096 6.48354ZM30.5096 6.48354C29.7686 5.27657 28.7299 4.34033 27.3934 3.6753C26.6648 3.31286 25.8761 3.04923 25.0272 2.8844H21.8369V5.72703H22.5931C22.6469 5.72703 22.7003 5.72749 22.7535 5.72864V3.80138H25.6864C27.1627 3.80138 28.3487 4.21104 29.2111 5.01867C30.0772 5.82974 30.4982 6.90879 30.4982 8.3175C30.4982 9.72643 30.0772 10.8054 29.2111 11.6163C28.7551 12.0434 28.2087 12.359 27.5767 12.5617C27.4431 12.9516 27.2626 13.3102 27.0353 13.6377C28.1475 13.4415 29.0865 12.989 29.8376 12.2857C30.8029 11.3818 31.3292 10.1755 31.4053 8.69621C31.2227 7.8966 30.9241 7.15889 30.5096 6.48354ZM30.5096 6.48354C29.7686 5.27657 28.7299 4.34033 27.3934 3.6753C26.6648 3.31286 25.8761 3.04923 25.0272 2.8844H21.8369V5.72703H22.5931C22.6469 5.72703 22.7003 5.72749 22.7535 5.72864V3.80138H25.6864C27.1627 3.80138 28.3487 4.21104 29.2111 5.01867C30.0772 5.82974 30.4982 6.90879 30.4982 8.3175C30.4982 9.72643 30.0772 10.8054 29.2111 11.6163C28.7551 12.0434 28.2087 12.359 27.5767 12.5617C27.4431 12.9516 27.2626 13.3102 27.0353 13.6377C28.1475 13.4415 29.0865 12.989 29.8376 12.2857C30.8029 11.3818 31.3292 10.1755 31.4053 8.69621C31.2227 7.8966 30.9241 7.15889 30.5096 6.48354ZM30.5096 6.48354C29.7686 5.27657 28.7299 4.34033 27.3934 3.6753C26.6648 3.31286 25.8761 3.04923 25.0272 2.8844H21.8369V5.72703H22.5931C22.6469 5.72703 22.7003 5.72749 22.7535 5.72864V3.80138H25.6864C27.1627 3.80138 28.3487 4.21104 29.2111 5.01867C30.0772 5.82974 30.4982 6.90879 30.4982 8.3175C30.4982 9.72643 30.0772 10.8054 29.2111 11.6163C28.7551 12.0434 28.2087 12.359 27.5767 12.5617C27.4431 12.9516 27.2626 13.3102 27.0353 13.6377C28.1475 13.4415 29.0865 12.989 29.8376 12.2857C30.8029 11.3818 31.3292 10.1755 31.4053 8.69621C31.2227 7.8966 30.9241 7.15889 30.5096 6.48354Z" fill="white"/>
<path d="M12.4791 12.146C12.332 12.6313 12.0265 13.037 11.5749 13.3403C10.9663 13.7493 10.141 13.9568 9.12228 13.9568H9.11243C9.08287 13.9568 9.05331 13.9565 9.02398 13.9563C9.02673 13.9114 9.02811 13.8657 9.02811 13.8192C9.02811 13.5253 8.97816 13.2642 8.8778 13.0361C8.95593 13.0386 9.03453 13.0398 9.11289 13.0398H9.12182C9.95587 13.0398 10.6091 12.8848 11.0642 12.579C11.473 12.3046 11.6634 11.9412 11.6634 11.4351C11.6634 11.0213 11.6631 9.9221 9.11999 9.9221H6.96614V6.83739L9.70749 3.73251H3.4375V2.67798H4.35403V2.81553H11.2479L11.4775 3.11309L7.88268 7.18424V9.00513H8.59047L8.40945 9.21145C9.81472 9.44115 10.8916 9.96451 11.6402 10.7817C12.0126 11.1886 12.2919 11.6432 12.4791 12.146Z" fill="white"/>
<path d="M2.05262 2.67798L1.48621 3.28708L0.832031 2.67798H2.05262Z" fill="white"/>
<path d="M14.4009 15.5026C14.3851 15.5157 14.3693 15.5285 14.3532 15.5412C13.9866 15.8321 13.5685 16.0895 13.1008 16.3119L13.1003 16.3121C13.0951 16.3149 13.0898 16.3174 13.0843 16.3199C12.6771 16.5127 12.2335 16.6688 11.7558 16.7878C11.2632 16.9109 10.7339 16.9946 10.1706 17.0384H10.1704C9.86063 17.0624 9.54076 17.0746 9.21081 17.0746H9.20394C8.03948 17.0746 6.87938 16.9189 5.75595 16.6113C4.61601 16.3004 3.62982 15.8486 2.82511 15.2688L2.69336 15.1739C2.96946 15.2986 3.25909 15.4089 3.56246 15.5042C4.35938 15.7557 5.19022 15.8834 6.02564 15.8825C6.20528 15.8825 6.37758 15.8761 6.54256 15.8626C7.41556 16.0586 8.30849 16.1576 9.20417 16.1576H9.21058C10.4603 16.1576 11.5409 15.9728 12.4285 15.6074C12.4214 15.6257 12.4141 15.6441 12.4065 15.6624L12.6625 15.5049H12.6627C12.6725 15.5006 12.6824 15.4958 12.6923 15.4912C13.1198 15.289 13.4972 15.0549 13.823 14.7908L13.9248 14.7283L14.4009 15.5026Z" fill="white"/>
<path d="M15.5842 2.80031L15.4941 2.71412L15.5285 2.67813L15.584 2.62036V2.67813L15.5842 2.80031Z" fill="white"/>
<path d="M16.3134 11.434C16.3196 12.4344 16.0416 13.411 15.51 14.2583C15.5029 14.2697 15.4958 14.2812 15.4883 14.2924V8.61401C16.0361 9.41453 16.3132 10.3602 16.3134 11.434Z" fill="white"/>
<path d="M29.2093 5.01857C28.3469 4.21094 27.1609 3.80128 25.6846 3.80128H22.7517V5.72854C24.2807 5.75742 25.5068 6.20399 26.4293 7.06801C27.3841 7.96206 27.8614 9.17339 27.8614 10.7015C27.8614 11.3851 27.7658 12.0052 27.5749 12.5616C28.2069 12.3589 28.7534 12.0432 29.2093 11.6162C30.0755 10.8053 30.4964 9.72633 30.4964 8.31739C30.4964 6.90869 30.0755 5.82963 29.2093 5.01857ZM29.2093 5.01857C28.3469 4.21094 27.1609 3.80128 25.6846 3.80128H22.7517V5.72854C24.2807 5.75742 25.5068 6.20399 26.4293 7.06801C27.3841 7.96206 27.8614 9.17339 27.8614 10.7015C27.8614 11.3851 27.7658 12.0052 27.5749 12.5616C28.2069 12.3589 28.7534 12.0432 29.2093 11.6162C30.0755 10.8053 30.4964 9.72633 30.4964 8.31739C30.4964 6.90869 30.0755 5.82963 29.2093 5.01857ZM31.4035 8.6961C31.2209 7.8965 30.9223 7.15879 30.5078 6.48344C29.7668 5.27647 28.7282 4.34023 27.3916 3.67519C26.663 3.31276 25.8743 3.04913 25.0254 2.8843C24.3169 2.74676 23.5667 2.67798 22.7746 2.67798H18.1232V16.7994H25.8679C26.4158 16.7994 26.9469 16.7671 27.4599 16.7024L27.915 17.4445C27.9422 17.4287 27.9695 17.4126 27.9963 17.3963L28.112 17.3253C28.6086 17.0146 29.0563 16.6593 29.4547 16.2593C29.8553 15.8579 30.2063 15.4111 30.5078 14.9196C30.5392 14.8687 30.5697 14.8171 30.5997 14.7655C30.6126 14.7435 30.6252 14.7215 30.6375 14.6993V14.699C31.2919 13.5425 31.6191 12.2099 31.6191 10.7015C31.6191 9.99454 31.5472 9.32607 31.4035 8.6961ZM19.2001 5.72693H22.5913C22.6452 5.72693 22.6985 5.72739 22.7517 5.72854C24.2807 5.75742 25.5068 6.20399 26.4293 7.06801C27.3841 7.96206 27.8614 9.17339 27.8614 10.7015C27.8614 11.3851 27.7658 12.0052 27.5749 12.5616C27.4414 12.9515 27.2608 13.3101 27.0335 13.6376C26.8596 13.8884 26.6582 14.1209 26.4293 14.335C25.4745 15.2291 24.1952 15.6761 22.5913 15.6761H19.2001V5.72693ZM29.2093 5.01857C28.3469 4.21094 27.1609 3.80128 25.6846 3.80128H22.7517V5.72854C24.2807 5.75742 25.5068 6.20399 26.4293 7.06801C27.3841 7.96206 27.8614 9.17339 27.8614 10.7015C27.8614 11.3851 27.7658 12.0052 27.5749 12.5616C28.2069 12.3589 28.7534 12.0432 29.2093 11.6162C30.0755 10.8053 30.4964 9.72633 30.4964 8.31739C30.4964 6.90869 30.0755 5.82963 29.2093 5.01857ZM15.4882 8.6138V14.2921C15.4958 14.2809 15.5029 14.2694 15.51 14.258C16.0415 13.4107 16.3195 12.4341 16.3133 11.4337C16.3131 10.3599 16.036 9.41433 15.4882 8.6138ZM15.5831 2.67798H15.5276L15.4932 2.71397L15.5833 2.80017L15.5831 2.67798ZM1.44235 14.4382L1.43273 14.4572L1.44762 14.4421C1.44579 14.4407 1.44419 14.4395 1.44235 14.4382ZM12.4776 12.146C12.2904 11.6432 12.0111 11.1886 11.6388 10.7817C10.8902 9.96451 9.81326 9.44115 8.40799 9.21144L8.589 9.00512H7.88121V7.18424L11.4761 3.11309L11.2465 2.81553L11.2128 2.77197L11.3345 2.67798H0.800781V5.65816H7.62894L4.32943 9.39484V11.4484L4.37434 11.3599L4.81083 11.6872C4.88416 11.7423 4.95908 11.7957 5.03561 11.8477H6.02501C7.57853 11.8477 8.5292 12.2438 8.87634 13.0361C8.9767 13.2642 9.02665 13.5253 9.02665 13.8192C9.02665 13.8657 9.02527 13.9114 9.02252 13.9563C8.98746 14.5477 8.72167 15.0104 8.22468 15.3437C7.793 15.6339 7.23208 15.8068 6.54193 15.8625C6.37696 15.876 6.20465 15.8824 6.02501 15.8824C5.18959 15.8833 4.35875 15.7556 3.56183 15.5041C3.25846 15.4088 2.96884 15.2985 2.69273 15.1738L2.82448 15.2687C3.6292 15.8485 4.61538 16.3003 5.75532 16.6112C6.87876 16.9188 8.03886 17.0745 9.20331 17.0745H9.21018C9.54013 17.0745 9.86 17.0623 10.1698 17.0383L9.96082 17.1669L10.4372 17.9417C10.9692 17.6141 11.4087 17.2294 11.7552 16.7877C11.8539 16.6625 11.9449 16.5325 12.0283 16.3982C12.1758 16.1632 12.3021 15.917 12.4059 15.6623C12.4135 15.644 12.4208 15.6256 12.4279 15.6073C12.6513 15.0406 12.7656 14.4338 12.7615 13.8192C12.7615 13.2122 12.6669 12.6544 12.4776 12.146Z" fill="white"/>
<path d="M10.4384 17.9419C10.2372 18.0662 10.023 18.1819 9.79542 18.2897C8.7948 18.7635 7.56894 19.0003 6.11784 19.0003C4.99166 19.001 3.87051 18.8506 2.78396 18.5533C1.69169 18.2553 0.763699 17.8312 0 17.281L1.43185 14.4613L1.43391 14.4574L1.44881 14.4423L4.23116 11.6443L4.33061 11.4486L4.37552 11.3601L4.81202 11.6874C4.88534 11.7425 4.96027 11.7959 5.0368 11.8479C5.55234 12.1977 6.14236 12.4781 6.79401 12.6828C7.47041 12.8962 8.17019 13.0148 8.87752 13.0363C8.97788 13.2644 9.02783 13.5255 9.02783 13.8194C9.02783 13.8659 9.02645 13.9116 9.0237 13.9565C8.17316 13.9478 7.33087 13.8137 6.5186 13.5576C5.85847 13.3499 5.25172 13.0721 4.70845 12.7287L4.54187 12.6324L2.8818 14.3015V14.3017L2.23908 14.948C2.38619 15.028 2.53787 15.1034 2.69391 15.174L2.82566 15.2689C3.63038 15.8487 4.61657 16.3005 5.7565 16.6114C6.87994 16.919 8.04004 17.0747 9.20449 17.0747H9.21136C9.54132 17.0747 9.86119 17.0625 10.171 17.0385L9.962 17.1671L10.4384 17.9419Z" fill="white"/>
<path d="M1.43533 14.4573L1.43278 14.462L1.43164 14.4609L1.43533 14.4573Z" fill="white"/>
<path d="M27.9166 17.4446C27.7475 17.5441 27.5732 17.6385 27.3933 17.7279C26.0567 18.3927 24.5177 18.7251 22.7763 18.7251H15.4898V14.2922C15.4974 14.281 15.5045 14.2695 15.5116 14.2581C16.0432 13.4108 16.3211 12.4342 16.3149 11.4338C16.3147 10.36 16.0377 9.41443 15.4898 8.61391V4.33277L12.9504 6.87371C13.8128 7.07018 14.3863 7.35558 15.0685 8.08435L15.0721 8.08825C15.2254 8.25583 15.3647 8.43097 15.4898 8.61391V14.2922C15.205 14.7425 14.8412 15.1471 14.4019 15.5026L13.9258 14.7283L13.824 14.7908C14.1957 14.4898 14.5 14.1494 14.7344 13.7723C15.1743 13.0708 15.4037 12.2643 15.3984 11.4381V11.4352C15.3984 10.3378 15.0712 9.44629 14.3978 8.7095C13.728 7.99449 13.2711 7.83379 11.9383 7.61646L11.0557 7.4725L14.6698 3.85663L14.6663 1.26296L12.0299 3.30048V5.08515L8.59065 9.00523H7.88286V7.18434L11.4777 3.11319L11.2481 2.81563L11.2144 2.77207L11.3361 2.67808L13.8277 0.752427H3.84394L3.43768 1.18937L2.05372 2.67808H0.833133L0.816406 2.66249L3.42989 -0.148503L3.43768 -0.141168V-0.164551H15.581L15.5847 2.62031L15.5292 2.67808L15.4949 2.71407L15.5849 2.80027L15.5847 2.67808H18.1249V16.7995H25.8695C26.4174 16.7995 26.9485 16.7672 27.4616 16.7025L27.9166 17.4446Z" fill="white"/>
<path d="M18.8484 0.536174L18.6415 0.752352L18.1241 1.29268L16.7979 2.678H15.584L15.5842 2.80019L15.4941 2.71399L15.5285 2.678L15.584 2.62023L18.1241 -0.0330391L18.1864 -0.0981445L18.6133 0.310827L18.8484 0.536174Z" fill="white"/>
<path d="M14.4045 15.5093L14.3527 15.5412L13.1003 16.3119L13.0998 16.3121L10.4412 17.9482L10.4373 17.9418L9.96094 17.167L10.1699 17.0384H10.1701L12.406 15.6624L12.662 15.5049H12.6622L13.8225 14.7908L13.9242 14.7283L14.4004 15.5026L14.4045 15.5093Z" fill="white"/>
<path d="M32.1169 14.8676L32.0921 14.8828L32.0919 14.883L30.6034 15.7968L30.603 15.797L28.113 17.3254L27.9973 17.3964L27.9168 17.446L27.9159 17.4446L27.4609 16.7025L27.4375 16.6645L30.1626 14.9914L30.6385 14.6994C30.6261 14.7216 30.6135 14.7436 30.6007 14.7656C30.9446 14.5751 31.2663 14.3628 31.5662 14.1297L31.5697 14.1274L31.6375 14.0859L32.1153 14.8651L32.1169 14.8676Z" fill="white"/>
<path d="M19.659 0.310791H17.9863V0.752315H19.659V0.310791Z" fill="white"/>
</g>
<defs>
<clipPath id="clip0_1_63">
<rect width="35" height="19" fill="white"/>
</clipPath>
</defs>
</svg>
