<svg width="201" height="56" viewBox="0 0 201 56" fill="none" xmlns="http://www.w3.org/2000/svg">
<path fill-rule="evenodd" clip-rule="evenodd" d="M48.5917 2.91519C48.608 3.35572 48.0945 3.71133 47.4526 3.70403C46.8503 3.69707 46.3785 3.37067 46.3671 2.95242C46.3546 2.51225 46.8271 2.16881 47.4561 2.16011C48.065 2.15176 48.5757 2.49172 48.5917 2.91519ZM164.078 28.7832C164.468 29.2095 164.655 29.7238 164.693 30.3101C164.652 30.927 164.461 31.4744 163.849 31.7695C163.299 32.0357 162.869 31.8384 162.762 31.2451C162.607 30.3905 162.787 29.5836 163.238 28.8497C163.483 28.4513 163.766 28.4408 164.078 28.7832ZM82.1939 34.5542L82.2879 34.6461C81.9257 35.9924 81.4001 37.2596 80.4109 38.2837C80.0914 38.6146 79.6695 38.5332 79.4402 38.1268C79.2032 37.7071 79.1706 37.2402 79.4509 36.8609C79.8332 36.3435 80.2565 35.8372 80.744 35.4234C81.0379 35.1742 81.3863 34.9898 81.7347 34.8054C81.8894 34.7236 82.044 34.6417 82.1939 34.5542ZM87.9853 27.383C88.05 27.3511 88.1147 27.3192 88.1742 27.2832C89.0919 27.3698 89.3781 27.7571 89.1051 28.5842C88.8122 29.4701 88.2838 30.188 87.4751 30.6588C87.2753 30.7753 86.937 30.8432 86.7604 30.7489C86.6192 30.6734 86.5564 30.3104 86.58 30.0878C86.6778 29.1712 87.0567 28.3556 87.6167 27.6339C87.7032 27.522 87.8442 27.4525 87.9853 27.383ZM151.777 23.3452C152.102 23.3285 152.304 23.5676 152.297 23.949C152.287 23.9701 152.277 23.9971 152.265 24.028L152.265 24.0282C152.233 24.1129 152.19 24.2263 152.125 24.3251C151.243 25.6651 150.225 26.8872 148.988 27.9137C148.745 28.1148 148.471 28.2916 148.184 28.4207C148.068 28.473 147.926 28.4702 147.785 28.4674C147.721 28.4661 147.658 28.4649 147.596 28.4687C147.593 28.4098 147.583 28.3491 147.574 28.2884C147.554 28.1567 147.534 28.025 147.571 27.9119C148 26.5998 148.626 25.4031 149.728 24.5234C150.16 24.1779 150.612 23.8519 151.079 23.5565C151.279 23.4301 151.54 23.3574 151.777 23.3452ZM149.297 5.56297L149.297 5.56405C149.314 5.60256 149.331 5.64085 149.347 5.67908C149.136 5.64861 148.922 5.61834 148.707 5.58786C148.023 5.49092 147.324 5.3918 146.627 5.27717C146.498 5.25629 146.337 5.13103 146.282 5.01133C145.917 4.21693 145.572 3.41313 145.23 2.60759C145.042 2.16324 145.176 1.86503 145.622 1.67922C146.613 1.26549 147.933 1.8372 148.307 2.85116C148.495 3.35834 148.676 3.86777 148.858 4.37724L148.859 4.37907C148.971 4.69286 149.083 5.00667 149.196 5.31997C149.226 5.40275 149.261 5.48333 149.297 5.56297ZM156.404 6.81236C155.371 6.63666 154.293 6.45332 153.306 6.28523L153.305 6.2644C153.305 6.24555 153.304 6.22722 153.304 6.20941C153.304 6.18122 153.305 6.15429 153.305 6.12854C153.307 6.03672 153.308 5.95969 153.282 5.89272C152.875 4.81915 152.464 3.74744 152.052 2.67569C151.902 2.28465 151.752 1.8936 151.602 1.50245C151.385 0.937356 151.504 0.679518 152.088 0.527459C152.763 0.351739 153.439 0.387922 154.082 0.662469C154.256 0.736586 154.431 0.900826 154.518 1.06959C155.412 2.8014 156.028 4.63866 156.523 6.51941C156.545 6.6008 156.585 6.67718 156.625 6.75295L156.65 6.8017C156.66 6.82076 156.67 6.83985 156.679 6.85902L156.404 6.81236ZM21.6498 32.5948C20.9653 33.05 20.1025 33.2775 18.8663 33.2734C17.7522 33.2337 16.5032 32.7166 15.5252 31.6258C14.679 30.6821 14.5111 29.6302 15.0218 28.7637C15.7212 27.5775 16.8575 27.0358 18.0992 27.2964C20.2232 27.7425 21.9874 30.0237 21.8851 32.2156C21.8792 32.3474 21.7647 32.519 21.6498 32.5948ZM22.8088 31.7655C22.7946 31.7718 22.7808 31.7779 22.768 31.7844C22.3587 29.2819 20.846 27.7286 18.5637 26.8945C16.8866 26.2814 15.3836 26.8214 14.4958 28.2314C13.8189 29.3069 13.8515 30.4549 14.6391 31.4535C15.6487 32.7344 17.0396 33.3423 18.6054 33.5963C19.7618 33.7842 20.8657 33.6433 21.8826 32.9334C21.9735 34.8984 21.5693 36.634 20.039 37.9305C19.2514 38.5976 18.2713 38.8512 17.28 38.9998C15.165 39.3165 13.0716 39.1773 11.0294 38.5276C8.90542 37.8519 7.34624 35.754 7.24285 33.5183C7.1863 32.2893 7.39863 31.1076 7.82538 29.9628C9.06086 26.6488 11.0967 23.9406 14.0236 21.9569C16.4765 20.2946 19.1407 19.8294 21.9829 20.8281C23.0831 21.2147 24.075 21.7992 24.8549 22.6845C26.1452 24.1497 26.4082 25.8412 25.8476 27.6743C25.3334 29.3556 24.2884 30.664 22.903 31.7145C22.8743 31.7363 22.8405 31.7514 22.8088 31.7655ZM21.1711 19.9846C20.9986 19.9557 20.8262 19.9265 20.584 19.8854C21.9432 19.3063 23.2879 18.7028 24.6294 18.1007C28.7228 16.2634 32.7863 14.4396 37.141 13.3635C38.5902 13.0054 40.0457 12.6732 41.5221 12.3362L41.5238 12.3359C42.1955 12.1825 42.8716 12.0282 43.5533 11.8701C43.5428 11.9248 43.5356 11.9698 43.5295 12.0083C43.5187 12.0756 43.5111 12.1227 43.495 12.1665C42.0805 16.0477 40.5113 19.8579 38.4036 23.4246C36.9672 25.8562 35.1624 27.993 33.293 30.0964C31.3345 32.3001 29.1529 34.193 26.5834 35.6367C24.8955 36.5846 23.116 37.3118 21.2831 37.9173C21.2499 37.9283 21.2143 37.9325 21.1712 37.9376L21.1712 37.9376C21.1491 37.9403 21.125 37.9431 21.0982 37.9472C21.103 37.9276 21.1058 37.9098 21.1084 37.894C21.1129 37.8655 21.1164 37.8435 21.1287 37.8289C22.1772 36.5846 22.6182 35.095 22.7053 33.5187C22.7535 32.6439 23.0074 32.091 23.7815 31.5958C25.3747 30.5763 26.4745 29.1138 26.8787 27.2198C27.3766 24.886 26.4224 22.6208 24.4022 21.2373C23.4231 20.5671 22.3337 20.1798 21.1711 19.9846ZM24.4619 37.5028L24.4618 37.5028L24.4618 37.5028L24.4617 37.5027L24.4617 37.5027C24.4116 37.4742 24.3598 37.4448 24.305 37.4148C24.5384 37.3062 24.7687 37.1986 24.9969 37.0919C25.7797 36.7259 26.537 36.3719 27.3013 36.0338C27.4161 35.983 27.6198 36.0393 27.7419 36.1135C32.5232 39.021 37.5848 41.3385 42.8195 43.2829C47.7923 45.1303 52.916 46.455 58.0807 47.6297C63.5978 48.8848 69.1559 49.9238 74.748 50.7763C79.6733 51.5272 84.6235 52.0398 89.5991 52.3223C96.7428 52.7274 103.886 52.6456 111.028 52.3185C115.102 52.132 119.178 51.9323 123.243 51.601C127.443 51.259 131.638 50.8111 135.822 50.3024C144.391 49.261 152.862 47.6614 161.202 45.4288C164.073 44.6607 166.917 43.7948 169.761 42.9291C170.815 42.6086 171.868 42.288 172.922 41.9725C173.254 41.873 173.506 41.8782 173.808 42.0689C174.238 42.3401 174.684 42.5857 175.147 42.8403L175.15 42.8419C175.341 42.9468 175.534 43.0532 175.73 43.1636C175.68 43.1825 175.633 43.2006 175.589 43.2176L175.588 43.2178C175.5 43.2521 175.421 43.2826 175.341 43.309C166.276 46.3154 157.044 48.6774 147.651 50.3762C142.973 51.2221 138.273 51.9601 133.562 52.5924C129.647 53.1178 125.706 53.4703 121.768 53.8061C113.757 54.4902 105.726 54.733 97.6889 54.5371C93.4745 54.4341 89.2622 54.1749 85.0548 53.8958C80.3478 53.5837 75.672 52.9633 71.0163 52.2047C62.4109 50.8024 53.9652 48.738 45.6822 46.0068C38.5403 43.6525 31.584 40.8291 24.7633 37.6636C24.6627 37.6169 24.566 37.562 24.4619 37.5028ZM200.427 28.9478C200.333 29.9667 200.019 30.8947 199.283 31.7225C199.246 31.5381 199.219 31.3578 199.192 31.1827L199.192 31.1825L199.192 31.1823C199.136 30.8126 199.083 30.4657 198.954 30.1504C198.554 29.1789 198.115 28.2167 197.606 27.2988C196.675 25.6209 195.496 24.1337 194.002 22.9113C193.284 22.3239 192.46 21.9435 191.629 21.5595L191.399 21.453C190.196 20.8941 189.007 20.3053 187.818 19.7165L187.817 19.7164L187.817 19.7163L187.817 19.7162L187.816 19.716C187.231 19.426 186.645 19.136 186.057 18.8495C181.018 16.3922 175.743 14.5762 170.36 13.057C164.163 11.3084 157.871 9.99349 151.521 8.9489C146.127 8.06194 140.708 7.37818 135.268 6.85693C123.568 5.73648 111.842 5.34085 100.095 5.60948C95.2401 5.72048 90.3846 5.88403 85.5367 6.15474C80.9948 6.40841 76.4543 6.75289 71.9284 7.20769C67.0042 7.70214 62.0862 8.29194 57.1852 8.98056C49.9212 10.0005 42.7075 11.3224 35.6169 13.2334C31.8809 14.2403 28.3264 15.7564 24.7739 17.2716L24.0289 17.5892C22.2452 18.3481 20.4435 19.0695 18.6245 19.7382C18.1903 19.8978 17.7302 19.9838 17.2693 20.0699L17.2693 20.0699L17.2692 20.07C16.9372 20.132 16.6049 20.1941 16.2815 20.2838C13.933 20.9356 12.1376 22.4377 10.5399 24.1915C8.52274 26.4049 7.21024 29.0049 6.62737 31.9462C6.05977 34.8107 7.21683 37.3842 9.6472 38.7865C10.601 39.337 11.672 39.5322 12.7427 39.6891C14.6675 39.971 16.5854 39.9783 18.4787 39.4477C18.5035 39.4406 18.5306 39.4422 18.5633 39.4441C18.5805 39.4451 18.5992 39.4463 18.62 39.4463C18.6095 39.4627 18.6012 39.4785 18.5935 39.493C18.5788 39.521 18.5667 39.5438 18.5478 39.5555C18.078 39.8469 17.6087 40.1392 17.1394 40.4314L17.1379 40.4323C15.7949 41.2687 14.452 42.105 13.0969 42.9214C12.1032 43.5199 10.9833 43.7464 9.84045 43.839C8.04257 43.9844 6.26342 43.8866 4.5332 43.324C2.21455 42.5699 0.958253 40.9122 0.739676 38.473C0.542957 36.2777 1.15636 34.2647 1.96301 32.2796C3.19398 29.2492 5.16499 26.7396 7.41321 24.4152C10.5031 21.2202 14.1592 18.9007 18.2151 17.1334C24.2565 14.5014 30.4966 12.479 36.8558 10.8015C43.6168 9.01815 50.4524 7.57409 57.3656 6.54446C62.4658 5.78485 67.5808 5.09554 72.7069 4.54088C85.0433 3.20539 97.4235 2.79549 109.824 3.11075C114.928 3.24054 120.033 3.42461 125.129 3.73882C129.876 4.03146 134.615 4.48034 139.349 4.94904C146.099 5.61714 152.806 6.60988 159.47 7.87925C167.184 9.34906 174.805 11.1825 182.191 13.8977C186.39 15.4419 190.47 17.2437 194.178 19.7964C195.937 21.0073 197.554 22.3786 198.832 24.1129C199.89 25.5489 200.597 27.1036 200.427 28.9478ZM168.901 34.5901C169.282 37.2979 170.522 39.4936 172.683 41.2546C172.513 41.3086 172.35 41.3609 172.191 41.4117L172.177 41.4161L172.177 41.4162C171.78 41.5433 171.409 41.6619 171.038 41.7773C163.139 44.2311 155.128 46.2323 146.978 47.6266C142.032 48.4721 137.068 49.2244 132.093 49.8723C127.487 50.4715 122.863 50.9517 118.235 51.3484C110.168 52.0401 102.083 52.2441 93.988 51.9114C88.7317 51.6953 83.4925 51.2732 78.2734 50.6194C69.6826 49.5432 61.1668 48.0587 52.8001 45.79C45.422 43.7892 38.2676 41.199 31.4955 37.6111C30.753 37.2178 30.0214 36.8033 29.2899 36.3889L29.2898 36.3889L29.2898 36.3889L29.2898 36.3889L29.2897 36.3888L29.2892 36.3885C28.9829 36.215 28.6766 36.0415 28.3695 35.8695C28.2898 35.8252 28.2141 35.7731 28.1642 35.7387L28.1465 35.7265L28.1242 35.7116C28.4999 35.4512 28.8854 35.2016 29.2709 34.952L29.2709 34.952C30.1348 34.3925 30.9988 33.8329 31.754 33.1523C33.0799 31.957 34.3011 30.6419 35.5198 29.3295C35.7288 29.1044 35.9377 28.8795 36.147 28.6552C40.1505 24.3658 42.773 19.2608 44.7999 13.8093C44.8582 13.6527 44.9162 13.4959 44.9741 13.3392L44.9752 13.3364L44.9762 13.3336L44.9763 13.3333C45.1729 12.8016 45.3696 12.2699 45.5788 11.7434C45.6267 11.6227 45.7519 11.4751 45.8657 11.449C46.3642 11.3366 46.8667 11.2417 47.4073 11.1396C47.596 11.104 47.7893 11.0675 47.9887 11.029C47.8772 11.3526 47.7721 11.67 47.6687 11.9821L47.6686 11.9822C47.448 12.6483 47.2352 13.2904 46.986 13.9178C46.297 15.651 45.5986 17.3805 44.9002 19.11C44.2153 20.806 43.5305 22.5019 42.8546 24.2012C42.1669 25.9303 41.4914 27.667 41.176 29.516C41.0574 30.2092 41.2149 30.8522 41.5799 31.4305C42.0909 32.2403 42.8948 32.2921 43.7233 32.1373C44.9841 31.9017 46.0843 31.2722 47.1789 30.6396C47.2631 30.5911 47.3474 30.5429 47.4391 30.4904L47.5918 30.403C47.5774 30.4642 47.556 30.5282 47.5356 30.5891C47.4934 30.7154 47.4557 30.8282 47.495 30.8735C47.6098 31.0057 47.8107 31.0885 47.9904 31.1334C48.6139 31.2886 48.9286 31.1483 49.2779 30.5968C49.5579 30.155 49.8369 29.7126 50.116 29.2702L50.1171 29.2683L50.1183 29.2664L50.1206 29.2629L50.1207 29.2626C50.7741 28.2267 51.4275 27.1908 52.0927 26.1624C52.6166 25.3526 53.3868 24.8791 54.3288 24.7079C54.5384 24.6696 54.7705 24.712 54.9842 24.7555C55.2815 24.8161 55.4127 25.0353 55.3211 25.3172C55.2059 25.671 55.0692 26.0249 54.8891 26.3492C54.581 26.9031 54.2651 27.4527 53.9492 28.0023C53.6419 28.5368 53.3347 29.0713 53.0347 29.6096C52.9427 29.7746 52.8501 30.093 52.9247 30.1636C53.0572 30.2896 53.3272 30.3452 53.5221 30.315C54.0655 30.2304 54.4939 29.9607 54.7528 29.4336C55.1368 28.6512 55.5374 27.8772 55.9381 27.1032C56.0355 26.915 56.1329 26.7268 56.2301 26.5385C56.7331 25.5639 57.5505 24.9758 58.5869 24.703C59.3321 24.5064 59.8643 24.8029 59.5882 25.725C59.3119 26.6463 59.064 27.5762 58.8161 28.5063L58.816 28.5064L58.816 28.5065L58.816 28.5066L58.8159 28.5067C58.7096 28.9056 58.6032 29.3046 58.4946 29.7029C58.3454 30.2513 58.1948 30.8258 58.7243 31.2433C59.2936 31.6926 59.9278 31.5482 60.4816 31.2127C61.0227 30.885 61.5429 30.5224 62.0631 30.1597L62.0632 30.1597L62.0633 30.1596L62.0633 30.1596L62.0634 30.1595C62.2839 30.0058 62.5043 29.8522 62.7263 29.7012L63.4351 29.2192C63.4351 29.2965 63.4344 29.3672 63.4337 29.4335V29.4337C63.4323 29.5642 63.4311 29.6774 63.4362 29.7902C63.4726 30.5826 64.0697 31.1668 64.8562 31.1859C65.5758 31.2037 66.2239 30.949 66.8262 30.6003C67.3977 30.2693 67.9544 29.9122 68.5112 29.5551L68.5112 29.555L68.5113 29.555L68.5113 29.555L68.5114 29.5549C68.737 29.4102 68.9626 29.2655 69.1892 29.1225C69.2795 29.0655 69.368 29.0058 69.4321 28.9625L69.4325 28.9622L69.4346 28.9608L69.4688 28.9378L69.4949 28.9203C69.5553 29.0711 69.6087 29.2233 69.6615 29.3738C69.7768 29.7024 69.8893 30.0231 70.0656 30.3035C70.5576 31.0864 71.3046 31.2948 72.1164 30.8609C72.8499 30.4693 73.5634 30.0408 74.277 29.6121C74.5742 29.4336 74.8713 29.2552 75.1699 29.0794C75.2633 29.0243 75.3548 28.9659 75.4363 28.9139C75.4672 28.8942 75.4966 28.8754 75.5242 28.858C75.5242 28.9635 75.5223 29.0676 75.5204 29.1708V29.1712V29.1716C75.5165 29.3928 75.5126 29.6094 75.5273 29.8247C75.5991 30.8755 76.2836 31.4055 77.2891 31.1195C77.803 30.9731 78.2969 30.7509 78.789 30.5295L78.7891 30.5295C78.9042 30.4777 79.0193 30.4259 79.1345 30.3752C79.466 30.2293 79.7901 30.0666 80.1204 29.9008C80.2669 29.8273 80.4145 29.7531 80.5646 29.6796C80.5772 29.8084 80.5863 29.933 80.5951 30.0542L80.5951 30.0545C80.6137 30.3105 80.6312 30.5517 80.6787 30.7868C80.8293 31.5349 81.2599 31.8592 82.0201 31.7663C82.2862 31.7343 82.5463 31.6469 82.8058 31.5596C82.9018 31.5273 82.9977 31.4951 83.0938 31.4657C83.1778 31.44 83.2587 31.4046 83.3605 31.3601C83.4144 31.3366 83.4741 31.3105 83.5431 31.282C83.5305 31.3566 83.5209 31.423 83.5121 31.4835C83.4951 31.6011 83.4812 31.6968 83.4547 31.7889C83.1494 32.8478 82.6383 33.6916 81.5846 34.239C80.7722 34.6613 80.0494 35.2769 79.3415 35.8798L79.1855 36.0125C78.7018 36.4231 78.3976 36.9959 78.469 37.6762C78.6158 39.067 80.2059 39.7288 81.3869 38.8666C81.7356 38.6118 82.0724 38.2635 82.2619 37.8822C82.8038 36.7913 83.2906 35.6708 83.7541 34.5434C84.0727 33.7681 84.3628 32.981 84.6529 32.1938C84.7662 31.8865 84.8795 31.5792 84.9944 31.2726C85.1308 30.9086 85.374 30.6657 85.7525 30.5666C85.7602 30.5694 85.7691 30.5716 85.7781 30.5737C85.7972 30.5783 85.8164 30.5829 85.8233 30.5947C86.3076 31.4427 86.7965 31.6167 87.7253 31.2931C89.0308 30.8383 89.6418 29.8497 89.8288 28.5445C89.8947 28.0845 89.7764 27.6645 89.3715 27.3924C89.6795 27.3439 89.987 27.2989 90.2936 27.2541C90.9914 27.1521 91.6848 27.0508 92.3698 26.9091C93.0482 26.7685 93.7183 26.5871 94.3973 26.4032L94.3982 26.403C94.6937 26.323 94.9909 26.2425 95.2911 26.1648C95.2779 26.1976 95.264 26.2329 95.2493 26.27C95.2127 26.3627 95.1717 26.4663 95.1274 26.5684C95.0412 26.767 94.9532 26.9649 94.8652 27.163C94.3885 28.2354 93.9111 29.3094 93.7222 30.4799C92.8157 36.094 96.809 42.2422 103.246 42.2811C103.452 42.2823 103.658 42.2227 103.889 42.1557C104.006 42.1219 104.129 42.0863 104.262 42.0556C103.888 41.9888 103.524 41.9324 103.167 41.8772C102.375 41.7546 101.622 41.638 100.897 41.4269C99.9499 41.1516 99.0021 40.7616 98.1673 40.2407C95.9809 38.8763 94.9213 36.7944 94.7645 34.2525C94.5768 31.211 95.5649 28.4767 97.0599 25.8941C97.3798 25.3419 97.7246 24.7994 98.1076 24.29C98.5774 23.6647 98.0993 22.9781 97.4717 22.8264C97.2167 22.7648 97.0803 22.895 97.0016 23.1191C96.9538 23.2554 96.9039 23.3912 96.854 23.527L96.8536 23.528L96.8536 23.5282C96.7406 23.8355 96.6277 24.1429 96.5388 24.4573C96.425 24.8617 96.188 25.1261 95.8331 25.3332C94.3342 26.2076 92.6987 26.6648 91.0008 26.908C90.4122 26.992 89.8151 27.0188 89.2189 27.0456C89.0665 27.0524 88.9141 27.0593 88.7619 27.0671C88.6087 27.0749 88.4541 27.0565 88.2719 27.0347L88.2717 27.0347L88.2716 27.0347C88.18 27.0238 88.0815 27.012 87.9726 27.0023C88.0394 26.8335 88.101 26.6695 88.161 26.5098L88.161 26.5097L88.1611 26.5095C88.2907 26.1645 88.4129 25.8393 88.5635 25.528C88.7455 25.1522 88.948 24.7863 89.1505 24.4205L89.1506 24.4202L89.1508 24.42L89.1509 24.4198L89.151 24.4196C89.2714 24.2021 89.3918 23.9846 89.5079 23.7649C89.7202 23.363 89.5894 23.1455 89.1352 23.1786C88.6155 23.2165 88.1884 23.3821 87.9698 23.9479C87.7399 24.5435 87.4928 25.1324 87.2456 25.7212C86.9874 26.3363 86.7292 26.9514 86.4908 27.5741C86.2772 28.1323 86.1006 28.7046 85.9206 29.2883L85.9206 29.2885L85.9205 29.2887C85.8383 29.5552 85.7554 29.8241 85.6679 30.0951L85.6162 30.0954C85.5549 30.096 85.4643 30.0968 85.3736 30.0947C84.4574 30.0735 83.6132 30.2391 82.9502 30.9549C82.8059 31.1111 82.597 31.2312 82.3948 31.3039C81.9243 31.4737 81.6467 31.2531 81.7206 30.7583C81.7755 30.3901 81.8445 30.0049 82.0058 29.6758C82.6042 28.4535 83.222 27.2408 83.8397 26.0282L83.8398 26.0282C84.0219 25.6707 84.2039 25.3133 84.3855 24.9556C84.4396 24.8493 84.4993 24.7461 84.5662 24.6305L84.5662 24.6304L84.5664 24.6301C84.5991 24.5736 84.6334 24.5142 84.6697 24.45C84.1562 24.171 83.6521 24.1873 83.1532 24.298C83.0484 24.3213 82.9599 24.5116 82.9023 24.6421C82.7767 24.9252 82.6563 25.2106 82.5359 25.496C82.3435 25.9523 82.1511 26.4084 81.9375 26.8545C81.4389 27.8959 80.6735 28.7143 79.6931 29.3167L79.5511 29.4041C78.9846 29.7531 78.4141 30.1046 77.8109 30.3773C77.0115 30.7388 76.5879 30.4096 76.6993 29.5432C76.7517 29.1368 76.8825 28.7283 77.0455 28.35C77.4572 27.3963 77.8834 26.4491 78.3097 25.5019C78.4876 25.1066 78.6655 24.7112 78.8424 24.3154C78.8769 24.2379 78.9069 24.1583 78.9373 24.0778L78.9374 24.0778L78.9374 24.0777L78.9374 24.0777L78.9376 24.0772L78.9378 24.0768L78.9616 24.0138L78.9787 23.9695C78.0246 23.7691 77.389 24.0822 77.0396 24.9375C76.8262 25.4605 76.619 25.9861 76.4119 26.5117C76.2476 26.9286 76.0833 27.3454 75.9159 27.7609C75.8718 27.8709 75.8021 27.9923 75.7087 28.057C75.453 28.2344 75.1979 28.4129 74.9429 28.5914C74.0946 29.185 73.2461 29.7787 72.3728 30.3327C71.382 30.9615 70.883 30.6633 70.8442 29.492C70.805 28.3184 71.0846 27.2355 71.7431 26.2546C71.9645 25.9246 72.1767 25.5887 72.3969 25.2398L72.3971 25.2395C72.4992 25.0778 72.6031 24.9134 72.7104 24.7454C72.1914 24.4584 71.6838 24.4351 71.1665 24.5802C71.0749 24.6056 70.9972 24.7482 70.951 24.8533C70.8488 25.0863 70.7564 25.3235 70.664 25.5607L70.664 25.5608L70.6638 25.5614C70.6303 25.6474 70.5968 25.7334 70.5628 25.8193C69.6951 28.0139 68.0013 29.3616 65.9498 30.3418C65.8506 30.3887 65.743 30.4218 65.6369 30.4521C65.0155 30.6278 64.6512 30.3814 64.7108 29.7481C64.7539 29.2864 64.8718 28.8125 65.055 28.3869C65.4808 27.3964 65.9292 26.4157 66.3775 25.4351L66.3781 25.4339L66.3786 25.4328L66.3791 25.4316C66.5656 25.0238 66.7521 24.616 66.9369 24.2075C66.9793 24.1136 67.0173 24.0174 67.056 23.9194L67.0562 23.9191L67.0562 23.919L67.0562 23.9189L67.0563 23.9189C67.0734 23.8754 67.0907 23.8316 67.1086 23.7875C66.0605 23.6295 65.522 23.9082 65.1428 24.815C64.9277 25.3295 64.7168 25.8457 64.5058 26.3619L64.5053 26.3631C64.2648 26.9516 64.0242 27.5402 63.7776 28.1263C63.7168 28.27 63.5947 28.4019 63.4719 28.5038L63.3338 28.6184L63.3337 28.6185C62.5887 29.2363 61.8433 29.8545 61.08 30.4493C60.8108 30.6591 60.4968 30.8258 60.1801 30.9542C59.8532 31.0868 59.6576 30.9385 59.6753 30.585C59.6891 30.3115 59.7401 30.0283 59.8349 29.7721C59.9576 29.4406 60.091 29.1128 60.2243 28.7849L60.2243 28.7849L60.2244 28.7848L60.2244 28.7847L60.2244 28.7846C60.4314 28.2758 60.6384 27.7671 60.8053 27.2452C61.0273 26.5503 61.1855 25.8238 61.2729 25.099C61.3555 24.4187 60.9673 24.0467 60.272 23.9897C59.3863 23.9169 58.572 24.1891 57.7795 24.536C57.4949 24.6607 57.2193 24.8057 56.9434 24.9508C56.8167 25.0174 56.6901 25.084 56.5624 25.1487C56.1777 24.0955 55.7121 23.8435 54.5404 24.1188C54.16 24.2082 53.788 24.334 53.3959 24.4666C53.2126 24.5285 53.025 24.592 52.83 24.6539C53.2295 23.9207 53.614 23.2158 53.9899 22.5268L54.0021 22.5043L54.2417 22.0651C54.222 22.04 54.208 22.0191 54.1969 22.0027L54.1968 22.0025L54.1968 22.0024C54.1797 21.9771 54.17 21.9625 54.1578 21.96C53.4621 21.826 52.0813 22.5209 51.7517 23.1368C50.6897 25.1199 49.6211 27.0994 48.5362 29.07C48.4095 29.3003 48.1962 29.5289 47.9658 29.6476C46.8837 30.2061 45.7887 30.7419 44.6812 31.2489C44.3884 31.3832 44.038 31.4246 43.7108 31.4406C43.1259 31.4692 42.7529 31.1884 42.7213 30.6087C42.6908 30.0488 42.6852 29.4433 42.8625 28.9242C43.3879 27.386 43.9802 25.8699 44.5721 24.3547L44.7045 24.0158L44.9573 23.3676L44.9576 23.367C46.1148 20.4006 47.2721 17.4338 48.465 14.4815C48.8832 13.4467 49.3742 12.4406 49.8645 11.4358C49.9469 11.267 50.0293 11.0981 50.1113 10.9292C50.1904 10.766 50.4152 10.6024 50.5953 10.5711C56.2394 9.59159 61.9061 8.76065 67.6072 8.20703C72.4939 7.73276 77.3862 7.29815 82.2834 6.95471C91.8126 6.28696 101.358 6.07819 110.908 6.25008C116.136 6.34404 121.365 6.56952 126.589 6.81831C128.811 6.92421 131.029 7.10369 133.268 7.28484C134.281 7.36678 135.298 7.44906 136.321 7.52503C136.288 7.61936 136.258 7.70732 136.229 7.79091C136.168 7.96571 136.114 8.12139 136.058 8.27628C134.218 13.3475 132.211 18.346 129.594 23.0763C126.714 28.2829 123.07 32.8426 118.334 36.4819C115.727 38.4848 112.825 39.9557 109.841 41.2835C109.582 41.3983 109.328 41.5219 109.102 41.7226C109.264 41.6717 109.426 41.6212 109.588 41.5707C109.937 41.4617 110.286 41.3528 110.634 41.2386C114.923 39.8318 118.633 37.4643 121.998 34.4794C126.192 30.7607 129.374 26.2668 132.135 21.4391C134.567 17.1852 136.564 12.7257 138.288 8.14162C138.397 7.85281 138.528 7.7592 138.825 7.80444C139.177 7.8579 139.532 7.89571 139.904 7.93543L139.904 7.93546L139.905 7.93551L139.905 7.93554C140.068 7.95292 140.234 7.97067 140.405 7.99025L140.374 8.06754L140.345 8.1407L140.345 8.14104L140.344 8.14247L140.344 8.14331C140.305 8.24036 140.269 8.33079 140.23 8.41999C139.666 9.72243 139.097 11.023 138.529 12.3236L138.528 12.3253L138.527 12.327L138.526 12.3287L138.526 12.3304L138.526 12.3305L138.525 12.3312C137.237 15.2784 135.949 18.2257 134.711 21.1941C133.154 24.9281 131.909 28.7763 130.953 32.7107C130.574 34.2696 130.596 35.842 131.236 37.34C132.099 39.3624 133.634 40.479 135.847 40.621C139.125 40.8315 141.963 39.6787 144.57 37.8032C146.514 36.4047 148.161 34.6887 149.81 32.9704C150.019 32.7528 150.228 32.5352 150.437 32.3182C152.801 29.8685 154.834 27.1607 156.803 24.3961C156.915 24.2381 157.03 24.0763 157.173 23.9493C157.225 23.9033 157.308 23.8913 157.39 23.8793C157.427 23.8738 157.464 23.8684 157.498 23.8599C157.498 23.892 157.499 23.925 157.501 23.958L157.501 23.9584C157.504 24.0312 157.507 24.1041 157.485 24.1682C157.448 24.2742 157.396 24.3747 157.343 24.4752L157.343 24.4753C157.318 24.5228 157.293 24.5703 157.27 24.6184C156.731 25.7333 156.222 26.8607 156.002 28.0915C155.863 28.8754 155.896 29.6424 156.306 30.3585C156.636 30.9337 157.275 31.2858 157.917 31.1261C158.349 31.0186 158.767 30.8466 159.183 30.6753L159.183 30.6751C159.292 30.6302 159.401 30.5854 159.51 30.5418C159.979 30.3546 160.444 30.159 160.941 29.9503L160.942 29.9499C161.164 29.8567 161.392 29.7608 161.63 29.6618C161.609 29.7711 161.592 29.8662 161.576 29.952L161.576 29.9524L161.576 29.954L161.575 29.9547C161.546 30.1167 161.522 30.2456 161.494 30.3738C161.338 31.0899 161.522 31.7023 162.078 32.178C162.617 32.6387 163.231 32.6032 163.841 32.3516C164.131 32.2316 164.421 32.0781 164.667 31.8829C165.568 31.1685 165.726 30.308 165.162 29.3014C165.071 29.1396 164.969 28.9848 164.854 28.8116C164.797 28.7266 164.738 28.6372 164.675 28.5404C166.457 28.457 168.024 27.7623 169.68 27.0281L169.681 27.0278L169.894 26.9331L170.104 26.8405C168.999 29.3981 168.524 31.9208 168.901 34.5901ZM196.042 34.5729C195.848 34.6013 195.653 34.63 195.432 34.6628C195.476 34.5326 195.52 34.4097 195.563 34.2913C195.653 34.0429 195.735 33.8144 195.797 33.5799C196.015 32.7438 195.946 31.9459 195.371 31.2569C194.749 30.5105 193.946 30.069 192.985 29.9454C192.056 29.8261 191.43 30.2948 191.242 31.2165C191.103 31.8961 191.326 32.4845 191.724 33.011C192.347 33.8339 193.203 34.2964 194.193 34.5184C194.443 34.5747 194.698 34.6099 194.96 34.6461L194.96 34.6461C195.083 34.6631 195.208 34.6803 195.334 34.7L195.333 34.7029C195.25 34.8703 195.185 35.002 195.1 35.174H195.787C195.776 35.1978 195.765 35.2206 195.755 35.2424L195.73 35.2964L195.73 35.2967L195.729 35.2975C195.694 35.3749 195.664 35.4403 195.628 35.5024C194.157 38.0293 191.022 39.4421 188.124 38.8077C184.316 37.9737 181.686 35.7213 180.282 32.0569C179.56 30.1747 179.127 28.2571 179.522 26.2253C180.078 23.371 182.735 20.9579 185.622 20.7056C185.994 20.673 186.367 20.6455 186.74 20.6181L186.74 20.618L186.743 20.6178C186.91 20.6055 187.078 20.5931 187.245 20.5803L187.263 20.4655C187.121 20.39 186.98 20.314 186.839 20.2381C186.522 20.0673 186.205 19.8966 185.884 19.7323C179.821 16.6222 173.413 14.4506 166.846 12.7194C159.084 10.6731 151.192 9.32052 143.237 8.31351C143.016 8.28568 142.901 8.32499 142.791 8.54804C142.517 9.10243 142.245 9.65725 141.972 10.2121L141.97 10.2165L141.967 10.2209L141.963 10.2294L141.959 10.2379L141.959 10.2383L141.959 10.2386L141.958 10.2391L141.958 10.2394C140.906 12.3799 139.853 14.5205 138.756 16.6379C136.27 21.4377 134.129 26.3694 132.856 31.6456C132.809 31.8386 132.761 32.0313 132.712 32.2241C132.456 33.2423 132.199 34.2615 132.232 35.3326C132.301 37.5105 133.444 39.1735 135.399 39.7483C136.092 39.9519 136.846 40.042 137.57 40.0322C139.843 40.002 141.828 39.1112 143.635 37.7906C146.804 35.4735 149.52 32.6731 152.098 29.729C152.132 29.691 152.157 29.646 152.184 29.5983L152.204 29.5636C152.208 29.556 152.213 29.5483 152.218 29.5406C152.22 29.5368 152.222 29.533 152.224 29.5293C152.204 29.5248 152.188 29.5195 152.174 29.5152C152.15 29.5077 152.134 29.5027 152.122 29.5077C152.034 29.5467 151.945 29.5874 151.862 29.6354C150.924 30.1793 149.905 30.4855 148.841 30.6368C148.163 30.7339 147.465 30.7753 146.876 30.3414C146.629 30.1587 146.452 30.1939 146.201 30.2757C145.911 30.3703 145.622 30.467 145.333 30.5638C144.36 30.8889 143.388 31.2142 142.396 31.4577C141.532 31.6696 140.618 31.7545 139.728 31.7521C138.869 31.7503 138.515 31.2033 138.711 30.3717C138.807 29.9701 138.96 29.5755 139.139 29.2032C139.556 28.3387 139.984 27.4796 140.412 26.6204L140.413 26.6181C140.604 26.2348 140.795 25.8516 140.985 25.4678C141.025 25.3882 141.061 25.3071 141.101 25.2166L141.101 25.2158L141.136 25.1371L141.165 25.0729C141.043 25.0579 140.925 25.0459 140.81 25.0342L140.81 25.0342C140.564 25.0092 140.332 24.9857 140.105 24.9375C139.463 24.8011 139.305 24.6031 139.218 23.9643C139.207 23.8802 139.17 23.7996 139.123 23.6986C139.099 23.6453 139.072 23.5863 139.044 23.5182C138.863 23.7658 138.687 24.0073 138.513 24.2442L138.507 24.2533L138.506 24.2545L138.503 24.259L138.501 24.2615C138.049 24.8793 137.62 25.4662 137.187 26.05C136.955 26.3635 136.578 26.4853 136.36 26.3026C136.037 26.0312 136.226 25.7545 136.405 25.4964C137.212 24.3314 138.021 23.1674 138.831 22.0042C138.845 21.9828 138.86 21.9596 138.875 21.936C138.923 21.8593 138.973 21.7795 139.041 21.7526C139.069 21.7414 139.098 21.7293 139.128 21.7169C139.317 21.639 139.533 21.5499 139.675 21.6099C139.828 21.6747 139.954 21.9687 139.965 22.1691C139.979 22.3965 139.956 22.6256 139.932 22.8551C139.916 23.0145 139.9 23.174 139.896 23.3334C139.876 24.1243 140.484 24.5221 141.177 24.1466C141.472 23.9865 141.733 23.7346 141.96 23.4799C142.116 23.3048 142.251 23.1114 142.387 22.9178L142.387 22.9176C142.491 22.769 142.595 22.6202 142.709 22.4795C143.072 22.0292 143.403 21.9603 143.92 22.19C144.344 22.3782 144.372 22.4729 144.109 22.8598C142.607 25.0753 141.378 27.438 140.355 29.9099C140.055 30.6344 140.307 31.0527 141.076 31.0193C142.883 30.941 144.591 30.5304 146.025 29.3379C146.123 29.2561 146.206 29.0936 146.209 28.9666C146.267 26.8475 147.252 25.1978 148.796 23.8425C149.433 23.284 150.202 22.9489 151.025 22.7728C151.355 22.7022 151.72 22.6883 152.05 22.7488C152.642 22.8574 152.91 23.3682 152.735 23.9444C152.683 24.1167 152.627 24.2927 152.538 24.4472C151.299 26.6022 149.737 28.4367 147.464 29.6037C147.582 29.99 147.882 30.2168 148.299 30.2513C148.599 30.2757 148.913 30.2603 149.207 30.1988C150.179 29.9943 151.05 29.5503 151.923 29.1058L151.923 29.1057L151.923 29.1056C152.149 28.9904 152.376 28.8752 152.604 28.7641C153.052 28.5456 153.365 28.238 153.639 27.8594C153.876 27.5329 154.118 27.2096 154.361 26.8862C154.969 26.074 155.578 25.2615 156.103 24.3978C156.723 23.3786 157.684 23.1161 158.656 22.8505L158.656 22.8504C158.866 22.7932 159.076 22.7357 159.284 22.6705C159.302 22.6651 159.325 22.6778 159.362 22.6979C159.384 22.7101 159.412 22.7249 159.446 22.7401C159.365 22.9131 159.283 23.0853 159.202 23.257L159.202 23.2579L159.199 23.2649L159.197 23.2683L159.194 23.2743C159.012 23.6601 158.831 24.0437 158.654 24.4292C158.536 24.6865 158.415 24.943 158.295 25.1995L158.295 25.2001L158.294 25.2006L158.294 25.2008L158.294 25.2009L158.294 25.2011L158.294 25.2012C157.966 25.8989 157.639 26.5968 157.352 27.311C157.047 28.0703 156.985 28.8796 157.196 29.6879C157.352 30.2826 157.649 30.5133 158.256 30.4291C158.606 30.38 158.982 30.2913 159.276 30.1076C160.077 29.6069 160.856 29.07 161.635 28.5334C161.768 28.4412 161.902 28.3491 162.036 28.2571C162.129 28.1927 162.192 28.0654 162.238 27.9544C162.37 27.6354 162.503 27.3169 162.636 26.9983L162.636 26.9981L162.636 26.9979L162.637 26.9977L162.637 26.9975C163.05 26.0092 163.463 25.0207 163.84 24.0189C164.06 23.4354 164.452 23.1782 165.015 23.1316C165.218 23.1145 165.477 23.1601 165.619 23.2833C165.692 23.3463 165.594 23.6574 165.518 23.8331C165.253 24.4511 164.984 25.067 164.714 25.6829C164.444 26.2988 164.174 26.9147 163.909 27.5326C163.858 27.6516 163.837 27.7835 163.813 27.933L163.813 27.9332C163.801 28.0079 163.789 28.087 163.771 28.1712C163.934 28.157 164.09 28.1453 164.241 28.134L164.241 28.134C164.564 28.1098 164.864 28.0873 165.161 28.0455C167.092 27.7741 168.749 26.8517 170.355 25.8179C170.477 25.7399 170.57 25.6028 170.649 25.4758C171 24.9135 171.85 24.6003 172.544 24.8133L172.427 25.0458L172.304 25.2921C171.195 27.5159 170.277 29.8056 169.988 32.2994C169.642 35.2891 170.393 37.9274 172.557 40.0841L172.623 40.1494C172.964 40.4903 173.319 40.8451 173.735 41.0626C174.938 41.6906 176.162 42.2898 177.413 42.8142C180.591 44.1476 183.869 45.0349 187.362 44.6995C190.016 44.4448 192.437 43.5589 194.331 41.6144C196.076 39.8217 197.29 37.6678 198.127 35.3072C198.196 35.1128 198.241 34.9095 198.282 34.7201L198.282 34.7193L198.283 34.7188L198.283 34.718C198.301 34.6339 198.319 34.5526 198.338 34.4759L195.896 35.1959L195.919 35.096C195.972 34.8668 196.006 34.7194 196.042 34.5729ZM196.046 34.571C196.191 34.5372 196.337 34.5077 196.483 34.4783C196.809 34.4125 197.135 34.3467 197.444 34.2324C198.555 33.8214 198.566 33.7772 198.522 32.6032C198.512 32.353 198.499 32.1021 198.468 31.8544C198.083 28.7801 196.581 26.3339 194.203 24.425C191.915 22.5888 189.33 21.5049 186.341 21.6628C184.68 21.7505 183.185 22.3191 182.194 23.7169C180.926 25.5068 180.371 27.5375 180.566 29.7436C180.683 31.0856 181.25 32.2785 181.816 33.4717L181.906 33.6624C182.72 35.3824 183.967 36.6253 185.664 37.5203C187.853 38.6745 190.017 38.783 192.252 37.7771C193.45 37.2384 194.342 36.3581 195.061 35.2143L194.975 35.2007C194.901 35.1889 194.852 35.1812 194.804 35.174C193.795 35.0268 192.813 34.7975 191.963 34.1934C190.995 33.5051 190.513 32.5747 190.6 31.3707C190.697 30.037 191.618 29.2053 192.945 29.2512C194.817 29.316 196.604 31.2308 196.472 33.1015C196.448 33.4427 196.326 33.7768 196.204 34.111C196.148 34.2641 196.092 34.4172 196.046 34.571ZM19.632 7.6047L19.6319 7.60477L19.6317 7.60485L19.6316 7.60493L19.6315 7.605C19.4765 7.69593 19.3215 7.78685 19.1657 7.87612L19.1733 7.89268C19.183 7.91372 19.1928 7.93494 19.2021 7.95615C19.2515 7.94279 19.301 7.93013 19.3505 7.91747L19.3507 7.91743L19.3508 7.9174C19.4573 7.89019 19.5637 7.86297 19.6681 7.8288C20.6349 7.51359 21.6013 7.19686 22.5677 6.88012L22.5682 6.87996L22.5687 6.87979L22.5692 6.87962L22.5697 6.87945C24.4863 6.25131 26.4029 5.62314 28.323 5.00681C31.1118 4.11184 33.9214 3.2983 36.8735 3.16433C38.4574 3.0923 40.0033 3.26837 41.4727 3.90863C42.1624 4.20927 42.3529 4.68216 41.9494 5.32763C41.6826 5.75493 41.3405 6.18327 40.9314 6.46269C40.8015 6.55133 40.6716 6.64059 40.5415 6.72995L40.5404 6.73065L40.5394 6.73136L40.5394 6.73139C39.5941 7.38066 38.6403 8.03581 37.6084 8.50837C34.1698 10.0829 30.7003 11.5952 27.2076 13.0462C25.5299 13.7429 23.8332 14.3932 22.1364 15.0435L22.1363 15.0435C20.8324 15.5432 19.5285 16.0429 18.2331 16.5638C13.3439 18.5294 9.0789 21.4032 5.56502 25.376C3.43337 27.7856 1.66845 30.3978 0.715736 33.5072C0.173805 35.2749 -0.24392 37.0523 0.161661 38.9191C0.688327 41.3441 2.00812 43.0327 4.46901 43.7252C6.22595 44.2193 8.00892 44.3759 9.82206 44.2913C11.3233 44.2207 12.7718 43.9447 14.0659 43.1291L14.2814 42.9933C15.5472 42.1955 16.8136 41.3974 18.0527 40.5594C19.5505 39.5461 21.0704 38.5809 22.7743 37.95C22.9446 37.887 23.1892 37.879 23.3488 37.9538C31.6159 41.8364 40.0797 45.2089 48.8144 47.8854C60.1086 51.3463 71.6408 53.5736 83.3978 54.6617C88.2082 55.1071 93.0273 55.3844 97.8561 55.4652C105.143 55.5866 112.426 55.4384 119.696 54.8987C123.32 54.63 126.946 54.3586 130.554 53.9369C134.946 53.4237 139.327 52.8057 143.698 52.133C149.672 51.2127 155.584 49.96 161.452 48.502C166.672 47.2052 171.835 45.7117 176.928 43.9757C177.084 43.9225 177.283 43.9072 177.439 43.9538C181.064 45.0398 184.736 45.5666 188.526 45.0415C191.573 44.6194 194.019 43.2252 195.845 40.74C196.773 39.4783 197.481 38.0948 198.088 36.6584C198.355 36.0281 198.613 35.3934 198.87 34.7588L198.871 34.7564L198.872 34.7534L198.872 34.753L198.872 34.7526L198.873 34.7522L198.873 34.752C199.324 33.6379 199.776 32.5239 200.279 31.4337C201.37 29.0682 201.227 26.8374 199.814 24.6623C198.74 23.0081 197.358 21.6517 195.812 20.453C192.728 18.06 189.277 16.3184 185.701 14.8149C179.058 12.0221 172.143 10.1198 165.129 8.55048C163.919 8.27966 162.704 8.02804 161.497 7.77794L161.497 7.77789C160.939 7.66232 160.383 7.54706 159.829 7.43038L159.366 5.39704L158.897 3.33727C159.558 3.17316 160.201 2.96127 160.841 2.75053L160.841 2.75047C162.215 2.2981 163.572 1.85108 165.051 1.89357C164.665 1.85977 164.281 1.85512 163.898 1.85048C163.587 1.84671 163.276 1.84296 162.967 1.82362C162.072 1.76726 161.201 1.82954 160.342 2.102C159.827 2.26484 159.298 2.38802 158.769 2.49172C158.635 2.51746 158.407 2.44509 158.337 2.3407C157.886 1.67226 157.277 1.2046 156.56 0.872984C155.465 0.366697 154.31 0.0935448 153.106 0.0295189C149.441 -0.165341 145.964 0.607491 142.656 2.15245C141.892 2.50942 141.152 2.91864 140.412 3.328C139.962 3.57665 139.513 3.82536 139.057 4.06243C139.001 4.09162 138.963 4.13915 138.924 4.18687C138.856 4.27111 138.787 4.35594 138.62 4.3415C137.39 4.23491 136.159 4.12291 134.929 4.0109C131.573 3.70536 128.216 3.39981 124.853 3.204C119.397 2.88631 113.932 2.68763 108.468 2.54705C101.517 2.36819 94.5639 2.47188 87.6198 2.86543C83.8252 3.08047 80.0307 3.32266 76.2448 3.65392C72.7645 3.95839 69.2885 4.34254 65.8239 4.7942C63.0168 5.16017 60.2181 5.59225 57.4195 6.02433L57.4192 6.02438L57.4188 6.02442L57.4185 6.02447L57.4182 6.02451C56.5452 6.15929 55.6722 6.29408 54.7989 6.42685C54.0239 6.54484 53.2521 6.68503 52.4671 6.82762L52.4668 6.82769L52.4666 6.82773C52.1058 6.89327 51.7422 6.95932 51.3742 7.02396C51.3897 6.96345 51.4048 6.90862 51.4188 6.85742L51.419 6.85675L51.419 6.85669C51.4463 6.75715 51.4699 6.67132 51.4859 6.58413C51.5212 6.38825 51.5614 6.19262 51.6015 5.99694C51.6956 5.53874 51.7897 5.08022 51.8218 4.61743C51.9446 2.84908 51.0678 1.56474 49.467 1.15831C48.9633 1.03026 48.4224 0.976332 47.9033 0.99895C46.7408 1.0494 45.5798 1.1505 44.4199 1.25151L44.4198 1.25153L44.2514 1.26619C39.6592 1.66426 35.1104 2.34383 30.6327 3.45384C27.1812 4.30914 23.8033 5.37844 20.6374 7.03614C20.2967 7.21471 19.9645 7.40961 19.6323 7.60453L19.632 7.6047ZM114.893 25.58C114.928 25.5139 114.969 25.4374 115.019 25.345C114.876 25.3289 114.741 25.3126 114.611 25.297C114.329 25.263 114.074 25.2323 113.818 25.2134C113.47 25.1873 113.299 25.3582 113.16 25.6988L113.132 25.7686L113.132 25.7688L113.132 25.7689C112.697 26.837 112.261 27.9105 111.723 28.9273C111.057 30.1872 109.888 30.8995 108.622 31.4559C108.51 31.5053 108.381 31.5234 108.258 31.5356C107.807 31.5787 107.531 31.3783 107.567 30.9284C107.603 30.4663 107.695 29.9861 107.875 29.5623C108.309 28.5441 108.768 27.5369 109.227 26.5299C109.413 26.1218 109.6 25.7137 109.784 25.3049C109.824 25.2168 109.859 25.1262 109.886 25.0547C109.896 25.0282 109.905 25.0043 109.913 24.9841L109.542 24.8287C109.21 24.6899 108.881 24.5527 108.518 24.4002C108.361 24.7972 108.201 25.1995 108.039 25.6063C107.64 26.6059 107.231 27.6318 106.847 28.6673C106.564 29.4335 106.327 30.2234 106.144 31.0196C105.92 31.9918 106.451 32.5704 107.417 32.4024C107.898 32.3189 108.384 32.1296 108.807 31.8839C109.356 31.5659 109.884 31.211 110.411 30.8561C110.644 30.6996 110.876 30.5431 111.111 30.3898C111.204 30.3291 111.3 30.2732 111.382 30.2257C111.416 30.2056 111.448 30.187 111.476 30.1702C111.476 30.4221 111.472 30.6722 111.469 30.9209V30.9213C111.461 31.4737 111.453 32.0192 111.485 32.5621C111.546 33.5882 112.266 34.137 113.183 33.8064C113.834 33.5713 114.453 33.2432 115.069 32.9164L115.07 32.9163C115.199 32.8479 115.327 32.7795 115.457 32.7121C115.563 32.6563 115.639 32.5393 115.714 32.4222C115.748 32.3682 115.783 32.3143 115.821 32.2663C115.755 32.2672 115.689 32.267 115.622 32.2668C115.457 32.2664 115.291 32.2659 115.128 32.2823C115.07 32.2881 115.016 32.3289 114.961 32.3699C114.934 32.3903 114.906 32.4109 114.879 32.4271C114.762 32.4944 114.647 32.5643 114.531 32.6342L114.531 32.6344L114.531 32.6344C114.266 32.7949 114.001 32.9552 113.722 33.0844C113.074 33.3836 112.637 33.1505 112.581 32.4462C112.54 31.9406 112.546 31.4107 112.651 30.9173C113.035 29.1051 113.807 27.4449 114.74 25.8561C114.788 25.7754 114.832 25.6928 114.893 25.5801L114.893 25.58ZM118.275 15.4531L118.346 15.5489C118.717 16.0459 119.081 16.5359 119.455 17.0192C119.486 17.0583 119.545 17.0724 119.606 17.0869C119.66 17.0999 119.716 17.1131 119.753 17.1448C119.821 17.2034 119.891 17.2611 119.961 17.3188C120.207 17.5211 120.455 17.7247 120.639 17.9737C120.82 18.219 120.638 18.4396 120.321 18.393C119.84 18.3223 119.484 18.0468 119.234 17.6323C119.134 17.466 119.036 17.2974 118.939 17.1289L118.939 17.1287L118.939 17.1285C118.748 16.797 118.556 16.4655 118.341 16.1507C117.588 15.0517 117.571 15.0507 116.256 14.9746L116.22 14.9725C115.859 14.9516 115.5 14.9206 115.142 14.8824C115.082 14.8759 115.025 14.8476 114.968 14.8192L114.951 14.8109C114.93 14.8006 114.909 14.7905 114.888 14.7818L114.905 14.6621C114.94 14.6571 114.975 14.6509 115.01 14.6448C115.086 14.6314 115.162 14.6181 115.238 14.6162C115.405 14.6123 115.571 14.607 115.738 14.6017C116.196 14.5873 116.654 14.5728 117.111 14.5866C118.116 14.6174 118.931 14.1455 119.748 13.6731C119.818 13.6325 119.888 13.592 119.958 13.5518C120.003 13.5258 120.032 13.4727 120.061 13.4188C120.086 13.3714 120.112 13.3235 120.15 13.2929C120.425 13.0712 120.703 12.8509 121.001 12.6641C121.072 12.6192 121.268 12.6704 121.328 12.7427C121.387 12.813 121.397 13.0128 121.34 13.0771C121.307 13.1146 121.274 13.1529 121.241 13.1914L121.24 13.1915C121.049 13.4139 120.85 13.6442 120.604 13.7744C120.291 13.94 119.966 14.0843 119.64 14.2296C119.337 14.3642 119.033 14.4997 118.733 14.6538C119.011 14.6413 119.287 14.6718 119.562 14.7022C120.051 14.7562 120.54 14.8102 121.045 14.6263C121.319 14.5265 121.65 14.572 121.97 14.6159L121.971 14.6159C122.052 14.6271 122.133 14.6382 122.212 14.6468C122.31 14.6572 122.454 14.8295 122.459 14.9328C122.463 15.0348 122.34 15.1861 122.234 15.2415C121.805 15.4673 121.36 15.4527 120.908 15.2836L120.868 15.2687C120.654 15.1883 120.429 15.1039 120.207 15.096C119.695 15.0788 119.183 15.0818 118.65 15.0849C118.437 15.0861 118.222 15.0873 118.002 15.0873C118.048 15.1486 118.094 15.2097 118.139 15.2708C118.184 15.3316 118.23 15.3924 118.275 15.4531ZM98.2035 12.4932C98.0729 12.5773 97.9422 12.6614 97.8118 12.7458L97.7559 12.6707C97.8596 12.4981 97.9661 12.3269 98.0726 12.1557C98.33 11.7418 98.5875 11.3278 98.8065 10.8943C98.9282 10.6534 98.9519 10.3569 98.9747 10.0716V10.0715C98.9784 10.0251 98.9821 9.97907 98.9862 9.93359C98.9945 9.84312 98.8748 9.6834 98.7849 9.65731C98.6968 9.6319 98.5206 9.70671 98.472 9.78953L98.4529 9.82184L98.4149 9.88506C98.2949 10.0835 98.1638 10.3006 98.1757 10.5004C98.2059 11.0158 98.0006 11.4366 97.793 11.8621L97.7679 11.9134C97.75 11.9503 97.732 11.9874 97.7143 12.0245C97.392 12.6982 96.9642 13.2803 96.33 13.7038C95.879 14.0054 95.4468 14.3353 95.0149 14.6649L94.853 14.7884C94.8016 14.8276 94.7712 14.8946 94.7408 14.9615L94.7408 14.9616C94.7267 14.9926 94.7127 15.0236 94.6965 15.0518L94.8065 15.1197C94.9216 15.0514 95.0401 14.9873 95.1586 14.9232L95.1588 14.9231C95.421 14.7812 95.6832 14.6394 95.9088 14.453C96.6991 13.7991 97.503 13.6975 98.4099 14.1958C98.7615 14.3891 99.1346 14.5434 99.5074 14.6975C99.6419 14.753 99.7764 14.8086 99.9097 14.866C100.339 15.0504 100.777 15.0595 101.199 14.8622C101.304 14.8127 101.413 14.668 101.426 14.5563C101.435 14.4724 101.308 14.3089 101.217 14.2891C101.153 14.2748 101.088 14.2588 101.022 14.2426C100.735 14.1724 100.439 14.0997 100.174 14.1554C99.8077 14.2327 99.5024 14.1878 99.1749 14.0702C99.0061 14.0097 98.8345 13.9568 98.6629 13.904L98.6626 13.9039C98.556 13.8711 98.4495 13.8383 98.3436 13.8037C98.1397 13.7366 97.9363 13.6676 97.7116 13.5914L97.7115 13.5914C97.6028 13.5545 97.4891 13.516 97.368 13.4752L97.6225 13.3048L97.9135 13.1096C98.461 12.7423 98.9738 12.3982 99.4913 12.0617C99.5724 12.009 99.682 11.9952 99.7862 11.9821C99.8051 11.9797 99.8238 11.9773 99.8421 11.9747C100.348 11.9048 100.717 11.6296 100.954 11.1925C101.015 11.0798 101.014 10.8769 100.95 10.7711C100.904 10.6956 100.698 10.672 100.577 10.696C100.132 10.7837 99.8012 11.0464 99.5701 11.4364C99.5529 11.4655 99.5378 11.4975 99.5226 11.5296C99.4887 11.6013 99.4547 11.6731 99.3983 11.7113C99.0039 11.9779 98.6037 12.2355 98.2035 12.4932ZM155.065 19.2858C154.929 19.8565 154.634 20.3913 154.076 20.7427C153.841 20.8917 153.714 20.7782 153.712 20.511C153.708 20.0552 154.306 19.131 154.717 18.9531C155 18.8307 155.061 18.9848 155.065 19.2858ZM151.962 18.7055C151.439 19.0694 151.142 19.5837 150.995 20.2487C151.005 20.2668 151.015 20.292 151.026 20.3192C151.053 20.3865 151.084 20.4656 151.131 20.4762C151.234 20.5003 151.383 20.4662 151.471 20.4004C151.941 20.0476 152.228 19.5663 152.357 18.9974C152.379 18.8975 152.331 18.743 152.259 18.6731C152.211 18.6272 152.038 18.6526 151.962 18.7055Z" fill="white"/>
</svg>
